<svg width="20" height="21" viewBox="0 0 20 21" fill="none" xmlns="http://www.w3.org/2000/svg">
<path fill-rule="evenodd" clip-rule="evenodd" d="M10 20.5889C15.523 20.5889 20 16.1119 20 10.5889C20 5.06587 15.523 0.588867 10 0.588867C4.477 0.588867 0 5.06587 0 10.5889C0 16.1119 4.477 20.5889 10 20.5889ZM13.536 7.05287C13.7238 6.86536 13.9783 6.76012 14.2437 6.76031C14.5091 6.7605 14.7635 6.86609 14.951 7.05387C15.1385 7.24164 15.2437 7.49621 15.2436 7.76157C15.2434 8.02694 15.1378 8.28136 14.95 8.46887L9.297 14.1219L9.293 14.1259C9.20035 14.2191 9.09019 14.293 8.96885 14.3435C8.84752 14.3939 8.71741 14.4199 8.586 14.4199C8.45459 14.4199 8.32448 14.3939 8.20315 14.3435C8.08181 14.293 7.97165 14.2191 7.879 14.1259L7.875 14.1219L5.05 11.2969C4.95449 11.2046 4.87831 11.0943 4.8259 10.9723C4.77349 10.8503 4.7459 10.719 4.74475 10.5863C4.7436 10.4535 4.7689 10.3218 4.81918 10.1989C4.86946 10.076 4.94371 9.96437 5.0376 9.87047C5.1315 9.77658 5.24315 9.70233 5.36605 9.65205C5.48894 9.60176 5.62062 9.57646 5.7534 9.57762C5.88618 9.57877 6.0174 9.60636 6.1394 9.65877C6.26141 9.71117 6.37175 9.78736 6.464 9.88287L8.586 12.0039L13.536 7.05387V7.05287Z" fill="#FFBD5A"/>
</svg>
