<svg width="222" height="32" viewBox="0 0 222 32" fill="none" xmlns="http://www.w3.org/2000/svg">
<g clip-path="url(#clip0_2856_16603)">
<path d="M12.84 27L8.88 20.1H6.6V27H1.8V6H10.2C12.2 6 13.9 6.7 15.3 8.1C16.7 9.5 17.4 11.2 17.4 13.2C17.4 14.48 17.04 15.67 16.32 16.77C15.62 17.85 14.69 18.69 13.53 19.29L18 27H12.84ZM6.6 10.5V15.9H10.2C10.86 15.9 11.42 15.64 11.88 15.12C12.36 14.6 12.6 13.96 12.6 13.2C12.6 12.44 12.36 11.8 11.88 11.28C11.42 10.76 10.86 10.5 10.2 10.5H6.6ZM24.5653 21.3C25.0853 22.7 26.2853 23.4 28.1653 23.4C29.3853 23.4 30.3453 23.02 31.0453 22.26L34.6453 24.33C33.1653 26.39 30.9853 27.42 28.1053 27.42C25.5853 27.42 23.5653 26.67 22.0453 25.17C20.5453 23.67 19.7953 21.78 19.7953 19.5C19.7953 17.24 20.5353 15.36 22.0153 13.86C23.5153 12.34 25.4353 11.58 27.7753 11.58C29.9553 11.58 31.7653 12.34 33.2053 13.86C34.6653 15.36 35.3953 17.24 35.3953 19.5C35.3953 20.14 35.3353 20.74 35.2153 21.3H24.5653ZM24.4753 17.94H30.9253C30.4853 16.36 29.4253 15.57 27.7453 15.57C26.0053 15.57 24.9153 16.36 24.4753 17.94ZM47.4982 16.32H44.4082V21.63C44.4082 22.23 44.6482 22.61 45.1282 22.77C45.6082 22.93 46.3982 22.98 47.4982 22.92V27C44.6382 27.3 42.6582 27.03 41.5582 26.19C40.4582 25.33 39.9082 23.81 39.9082 21.63V16.32H37.5082V12H39.9082V9.15L44.4082 7.8V12H47.4982V16.32ZM61.8431 12H66.3431V27H61.8431V25.59C60.7831 26.81 59.2931 27.42 57.3731 27.42C55.3931 27.42 53.7031 26.66 52.3031 25.14C50.9031 23.6 50.2031 21.72 50.2031 19.5C50.2031 17.28 50.9031 15.41 52.3031 13.89C53.7031 12.35 55.3931 11.58 57.3731 11.58C59.2931 11.58 60.7831 12.19 61.8431 13.41V12ZM55.6931 22.17C56.3531 22.83 57.2131 23.16 58.2731 23.16C59.3331 23.16 60.1931 22.83 60.8531 22.17C61.5131 21.51 61.8431 20.62 61.8431 19.5C61.8431 18.38 61.5131 17.49 60.8531 16.83C60.1931 16.17 59.3331 15.84 58.2731 15.84C57.2131 15.84 56.3531 16.17 55.6931 16.83C55.0331 17.49 54.7031 18.38 54.7031 19.5C54.7031 20.62 55.0331 21.51 55.6931 22.17ZM74.9845 9.9C74.4645 10.42 73.8345 10.68 73.0945 10.68C72.3545 10.68 71.7145 10.42 71.1745 9.9C70.6545 9.36 70.3945 8.72 70.3945 7.98C70.3945 7.24 70.6545 6.61 71.1745 6.09C71.7145 5.55 72.3545 5.28 73.0945 5.28C73.8345 5.28 74.4645 5.55 74.9845 6.09C75.5245 6.61 75.7945 7.24 75.7945 7.98C75.7945 8.72 75.5245 9.36 74.9845 9.9ZM70.8445 27V12H75.3445V27H70.8445ZM79.8375 27V5.1H84.3375V27H79.8375ZM105.03 27.42C102.89 27.42 101.1 26.96 99.6605 26.04C98.2405 25.1 97.2305 23.83 96.6305 22.23L100.77 19.83C101.61 21.77 103.08 22.74 105.18 22.74C107.08 22.74 108.03 22.17 108.03 21.03C108.03 20.41 107.72 19.93 107.1 19.59C106.5 19.23 105.36 18.82 103.68 18.36C102.8 18.12 102.03 17.85 101.37 17.55C100.71 17.25 100.06 16.86 99.4205 16.38C98.8005 15.88 98.3205 15.26 97.9805 14.52C97.6605 13.78 97.5005 12.93 97.5005 11.97C97.5005 10.03 98.1905 8.48 99.5705 7.32C100.97 6.16 102.63 5.58 104.55 5.58C106.27 5.58 107.79 5.99 109.11 6.81C110.43 7.61 111.47 8.78 112.23 10.32L108.18 12.69C107.8 11.89 107.33 11.29 106.77 10.89C106.21 10.47 105.47 10.26 104.55 10.26C103.83 10.26 103.27 10.42 102.87 10.74C102.49 11.04 102.3 11.41 102.3 11.85C102.3 12.37 102.54 12.82 103.02 13.2C103.52 13.58 104.54 14 106.08 14.46C106.92 14.72 107.57 14.93 108.03 15.09C108.49 15.25 109.07 15.52 109.77 15.9C110.49 16.26 111.03 16.65 111.39 17.07C111.77 17.47 112.1 18.01 112.38 18.69C112.68 19.35 112.83 20.11 112.83 20.97C112.83 22.97 112.11 24.55 110.67 25.71C109.23 26.85 107.35 27.42 105.03 27.42ZM124.63 16.32H121.54V21.63C121.54 22.23 121.78 22.61 122.26 22.77C122.74 22.93 123.53 22.98 124.63 22.92V27C121.77 27.3 119.79 27.03 118.69 26.19C117.59 25.33 117.04 23.81 117.04 21.63V16.32H114.64V12H117.04V9.15L121.54 7.8V12H124.63V16.32ZM133.171 14.67C133.451 13.71 134.011 12.98 134.851 12.48C135.711 11.96 136.651 11.7 137.671 11.7V16.8C136.571 16.62 135.541 16.81 134.581 17.37C133.641 17.91 133.171 18.86 133.171 20.22V27H128.671V12H133.171V14.67ZM145.114 9.9C144.594 10.42 143.964 10.68 143.224 10.68C142.484 10.68 141.844 10.42 141.304 9.9C140.784 9.36 140.524 8.72 140.524 7.98C140.524 7.24 140.784 6.61 141.304 6.09C141.844 5.55 142.484 5.28 143.224 5.28C143.964 5.28 144.594 5.55 145.114 6.09C145.654 6.61 145.924 7.24 145.924 7.98C145.924 8.72 145.654 9.36 145.114 9.9ZM140.974 27V12H145.474V27H140.974ZM160.857 6H165.357V27H160.857V25.59C159.797 26.81 158.307 27.42 156.387 27.42C154.407 27.42 152.717 26.66 151.317 25.14C149.917 23.6 149.217 21.72 149.217 19.5C149.217 17.28 149.917 15.41 151.317 13.89C152.717 12.35 154.407 11.58 156.387 11.58C158.307 11.58 159.797 12.19 160.857 13.41V6ZM154.707 22.17C155.367 22.83 156.227 23.16 157.287 23.16C158.347 23.16 159.207 22.83 159.867 22.17C160.527 21.51 160.857 20.62 160.857 19.5C160.857 18.38 160.527 17.49 159.867 16.83C159.207 16.17 158.347 15.84 157.287 15.84C156.227 15.84 155.367 16.17 154.707 16.83C154.047 17.49 153.717 18.38 153.717 19.5C153.717 20.62 154.047 21.51 154.707 22.17ZM173.879 21.3C174.399 22.7 175.599 23.4 177.479 23.4C178.699 23.4 179.659 23.02 180.359 22.26L183.959 24.33C182.479 26.39 180.299 27.42 177.419 27.42C174.899 27.42 172.879 26.67 171.359 25.17C169.859 23.67 169.109 21.78 169.109 19.5C169.109 17.24 169.849 15.36 171.329 13.86C172.829 12.34 174.749 11.58 177.089 11.58C179.269 11.58 181.079 12.34 182.519 13.86C183.979 15.36 184.709 17.24 184.709 19.5C184.709 20.14 184.649 20.74 184.529 21.3H173.879ZM173.789 17.94H180.239C179.799 16.36 178.739 15.57 177.059 15.57C175.319 15.57 174.229 16.36 173.789 17.94Z" fill="white"/>
<path d="M214.25 24.25H198.75V8.75L214.25 24.25Z" fill="#00FFD4"/>
<path d="M222 1H191L198.75 8.75L214.25 8.75L214.25 24.25L222 32V1Z" fill="#FF3377"/>
</g>
<defs>
<clipPath id="clip0_2856_16603">
<rect width="222" height="32" fill="white"/>
</clipPath>
</defs>
</svg>
