<svg width="167" height="50" viewBox="0 0 167 50" fill="none" xmlns="http://www.w3.org/2000/svg">
<g clip-path="url(#clip0_582_480)">
<mask id="mask0_582_480" style="mask-type:luminance" maskUnits="userSpaceOnUse" x="0" y="0" width="167" height="50">
<path d="M166.5 0H0.5V49.9709H166.5V0Z" fill="white"/>
</mask>
<g mask="url(#mask0_582_480)">
<path d="M103.46 39.0385C93.8249 46.1216 79.8596 49.9008 67.8356 49.9008C50.9763 49.9008 35.7983 43.6816 24.3157 33.3375C23.4135 32.5242 24.2218 31.4156 25.3044 32.0491C37.6963 39.2402 53.0188 43.5663 68.8462 43.5663C79.5203 43.5663 91.2628 41.3637 102.06 36.7928C103.691 36.1018 105.055 37.8581 103.46 39.0385Z" fill="white"/>
<path d="M107.466 34.4675C106.239 32.8984 99.3248 33.7261 96.2216 34.0933C95.2761 34.2086 95.1317 33.3877 95.9832 32.7976C101.49 28.9321 110.526 30.0479 111.58 31.3436C112.633 32.6465 111.306 41.6801 106.131 45.992C105.337 46.6543 104.579 46.3016 104.933 45.4235C106.095 42.5298 108.7 36.044 107.466 34.4675Z" fill="white"/>
<path d="M96.4378 5.50941V1.75192C96.4378 1.18326 96.8711 0.801758 97.3907 0.801758H114.257C114.799 0.801758 115.232 1.19046 115.232 1.75192V4.96955C115.224 5.50941 114.77 6.21484 113.961 7.33054L105.221 19.7763C108.469 19.6971 111.897 20.1794 114.842 21.835C115.506 22.2093 115.686 22.7564 115.737 23.2962V27.3057C115.737 27.8527 115.131 28.4934 114.496 28.1623C109.306 25.4485 102.414 25.1534 96.6762 28.1911C96.0916 28.5078 95.478 27.8743 95.478 27.3273V23.5194C95.478 22.9076 95.4853 21.8638 96.0989 20.9352L106.225 6.45236H97.4123C96.8711 6.45236 96.4378 6.07087 96.4378 5.50941Z" fill="white"/>
<path d="M34.9109 28.9539H29.7794C29.2886 28.9179 28.8989 28.5508 28.8628 28.0829V1.81657C28.8628 1.2911 29.303 0.8736 29.8516 0.8736H34.6367C35.1347 0.895182 35.5314 1.2767 35.5676 1.75179V5.18535H35.6616C36.9099 1.86696 39.2555 0.319336 42.4168 0.319336C45.6286 0.319336 47.6348 1.86696 49.0784 5.18535C50.3197 1.86696 53.1417 0.319336 56.1656 0.319336C58.3163 0.319336 60.6692 1.20472 62.1054 3.19143C63.7292 5.40128 63.3972 8.6117 63.3972 11.4262L63.3902 28.0038C63.3902 28.5292 62.9497 28.9539 62.4012 28.9539H57.2771C56.7645 28.9179 56.3532 28.5076 56.3532 28.0038V14.0824C56.3532 12.9738 56.4544 10.2097 56.2091 9.15876C55.8263 7.39522 54.6789 6.89853 53.1922 6.89853C51.9508 6.89853 50.6517 7.72631 50.1248 9.05081C49.598 10.3753 49.6484 12.5923 49.6484 14.0824V28.0038C49.6484 28.5292 49.2082 28.9539 48.6597 28.9539H43.5353C43.0157 28.9179 42.6117 28.5076 42.6117 28.0038L42.6044 14.0824C42.6044 11.1527 43.0881 6.84094 39.4434 6.84094C35.7552 6.84094 35.8996 11.0447 35.8996 14.0824V28.0038C35.8996 28.5292 35.4594 28.9539 34.9109 28.9539Z" fill="white"/>
<path d="M129.753 0.319336C137.367 0.319336 141.488 6.84094 141.488 15.1333C141.488 23.145 136.934 29.501 129.753 29.501C122.276 29.501 118.205 22.9794 118.205 14.8526C118.205 6.67538 122.326 0.319336 129.753 0.319336ZM129.796 5.68204C126.014 5.68204 125.776 10.8216 125.776 14.0248C125.776 17.2352 125.726 24.0879 129.753 24.0879C133.729 24.0879 133.917 18.5597 133.917 15.1909C133.917 12.9738 133.823 10.3249 133.152 8.223C132.575 6.39465 131.427 5.68204 129.796 5.68204Z" fill="white"/>
<path d="M151.361 28.9539H146.251C145.739 28.9179 145.328 28.5076 145.328 28.0038L145.32 1.73019C145.363 1.24791 145.789 0.8736 146.309 0.8736H151.065C151.513 0.895182 151.881 1.19752 151.982 1.60782V5.62442H152.076C153.512 2.03252 155.526 0.319336 159.069 0.319336C161.372 0.319336 163.616 1.14713 165.059 3.41459C166.402 5.51647 166.402 9.05081 166.402 11.5918V28.1261C166.344 28.5868 165.918 28.9539 165.413 28.9539H160.267C159.798 28.9179 159.408 28.5724 159.358 28.1261V13.8592C159.358 10.9871 159.69 6.78336 156.146 6.78336C154.898 6.78336 153.75 7.61836 153.18 8.88525C152.458 10.4904 152.364 12.0885 152.364 13.8592V28.0038C152.357 28.5292 151.91 28.9539 151.361 28.9539Z" fill="white"/>
<path d="M82.992 16.4071V15.2986C79.2826 15.2986 75.3633 16.0904 75.3633 20.4526C75.3633 22.6624 76.511 24.1596 78.4815 24.1596C79.9247 24.1596 81.2168 23.2743 82.0322 21.8346C83.0425 20.0639 82.992 18.401 82.992 16.4071ZM88.1669 28.8817C87.8276 29.184 87.3369 29.2056 86.9544 29.004C85.2509 27.5932 84.9478 26.9382 84.0096 25.5921C81.1949 28.457 79.2029 29.3136 75.5512 29.3136C71.2352 29.3136 67.8721 26.6574 67.8721 21.3379C67.8721 17.1845 70.131 14.3556 73.3428 12.9736C76.1286 11.7499 80.0186 11.5339 82.992 11.1956V10.5334C82.992 9.31686 83.086 7.87723 82.3715 6.8263C81.7434 5.88332 80.5455 5.49461 79.4917 5.49461C77.5359 5.49461 75.7893 6.49518 75.3633 8.56826C75.277 9.02895 74.9377 9.48243 74.4759 9.50402L69.4959 8.97137C69.0772 8.87779 68.6154 8.53945 68.731 7.89882C69.8783 1.8811 75.3275 0.0671387 80.2062 0.0671387C82.7035 0.0671387 85.9657 0.729375 87.9358 2.61531C90.4331 4.94034 90.1948 8.04279 90.1948 11.4188V19.3944C90.1948 21.7914 91.1908 22.8424 92.129 24.1381C92.461 24.5987 92.5334 25.153 92.1147 25.4985C91.0682 26.3695 89.2061 27.9891 88.1812 28.8961L88.1669 28.8817Z" fill="white"/>
<path d="M15.7202 16.4071V15.2986C12.0106 15.2986 8.09159 16.0904 8.09159 20.4526C8.09159 22.6624 9.23912 24.1596 11.2094 24.1596C12.6529 24.1596 13.9448 23.2743 14.7603 21.8346C15.7707 20.0639 15.7202 18.401 15.7202 16.4071ZM20.895 28.8817C20.5558 29.184 20.065 29.2056 19.6825 29.004C17.9792 27.5932 17.6761 26.9382 16.7378 25.5921C13.9231 28.457 11.9312 29.3136 8.27924 29.3136C3.96334 29.3136 0.600098 26.6574 0.600098 21.3379C0.600098 17.1845 2.85909 14.3556 6.07077 12.9736C8.85662 11.7499 12.7467 11.5339 15.7202 11.1956V10.5334C15.7202 9.31686 15.814 7.87723 15.0995 6.8263C14.4716 5.88332 13.2736 5.49461 12.2198 5.49461C10.264 5.49461 8.51742 6.49518 8.09159 8.56826C8.00497 9.02895 7.66577 9.48243 7.20386 9.50402L2.22398 8.97137C1.80537 8.87779 1.34347 8.53945 1.45895 7.89882C2.60649 1.8811 8.0555 0.0671387 12.9344 0.0671387C15.4315 0.0671387 18.6937 0.729375 20.664 2.61531C23.1612 4.94034 22.923 8.04279 22.923 11.4188V19.3944C22.923 21.7914 23.919 22.8424 24.8572 24.1381C25.1892 24.5987 25.2614 25.153 24.8428 25.4985C23.7963 26.3695 21.9343 27.9891 20.9094 28.8961L20.895 28.8817Z" fill="white"/>
</g>
</g>
<defs>
<clipPath id="clip0_582_480">
<rect width="166" height="50" fill="white" transform="translate(0.5)"/>
</clipPath>
</defs>
</svg>
