<svg width="208" height="50" viewBox="0 0 208 50" fill="none" xmlns="http://www.w3.org/2000/svg">
<g clip-path="url(#clip0_582_452)">
<mask id="mask0_582_452" style="mask-type:luminance" maskUnits="userSpaceOnUse" x="0" y="0" width="208" height="50">
<path d="M208 0H0V49.9529H208V0Z" fill="white"/>
</mask>
<g mask="url(#mask0_582_452)">
<path d="M120.64 26.5826C120.64 21.6494 118.532 17.2908 111.401 17.2908C107.743 17.2908 104.837 18.3351 103.262 19.2492L104.416 23.207C105.867 22.2954 108.182 21.5447 110.366 21.5447C113.976 21.5396 114.568 23.5849 114.568 24.8999V25.2165C106.688 25.2037 101.707 27.9307 101.707 33.4843C101.707 36.8778 104.235 40.0593 108.656 40.0593C111.353 40.0593 113.632 38.969 114.993 37.248H115.126C115.126 37.248 116.023 41.0091 120.987 39.5716C120.734 37.9961 120.64 36.3364 120.64 34.3193V26.5826ZM114.761 31.7914C114.761 32.1898 114.728 32.6034 114.611 32.9583C114.157 34.4776 112.592 35.7492 110.644 35.7492C109 35.7492 107.71 34.8172 107.71 32.8639C107.71 29.8764 111.004 29.0542 114.761 29.0746" fill="white"/>
<path d="M0 10.5791C0 10.5791 5.14696 31.6701 5.96536 35.0865C6.92894 39.0799 8.65484 40.5558 13.6362 39.5728L16.8534 26.4944C17.6666 23.2541 18.2198 20.9305 18.745 17.629H18.8341C19.1987 20.9637 19.7239 23.2541 20.3892 26.5046C20.3892 26.5046 21.7021 32.4463 22.3828 35.5589C23.0456 38.6714 24.9116 40.635 29.7987 39.5728L37.4568 10.5791H31.2747L28.6464 23.1213C27.9505 26.7548 27.3182 29.6171 26.8262 32.9467H26.7369C26.2934 29.6529 25.73 26.908 25.006 23.3486L22.2834 10.5791H15.8337L12.9275 23.0217C12.0989 26.8212 11.3239 29.8674 10.837 33.0923H10.7529C10.2507 30.0665 9.57004 26.2135 8.84853 22.557C8.84853 22.557 7.12267 13.6483 6.51344 10.5791" fill="white"/>
<path d="M54.6851 26.5826C54.6851 21.6494 52.5718 17.2908 45.4416 17.2908C41.7933 17.2908 38.8822 18.3351 37.3067 19.2492L38.4615 23.207C39.907 22.2954 42.2193 21.5447 44.4116 21.5447C48.0212 21.5396 48.6128 23.5849 48.6128 24.8999V25.2165C40.733 25.2037 35.7466 27.9307 35.7466 33.4843C35.7466 36.8778 38.2857 40.0593 42.6856 40.0593C45.4083 40.0593 47.6672 38.969 49.0283 37.248H49.166C49.166 37.248 50.0683 41.0091 55.0266 39.5716C54.772 37.9961 54.6851 36.3364 54.6851 34.3193V26.5826ZM48.8016 31.7914C48.8016 32.1898 48.7683 32.6034 48.656 32.9583C48.1972 34.4776 46.6322 35.7492 44.6795 35.7492C43.045 35.7492 41.75 34.8172 41.75 32.8639C41.75 29.8764 45.0439 29.0542 48.8016 29.0746" fill="white"/>
<path d="M57.8931 10.5791V39.5626H63.777V33.4166V10.5791H57.8931Z" fill="white"/>
<path d="M138.698 10.5791V31.9637C138.698 34.9154 139.252 36.9734 140.442 38.2348C141.487 39.3404 143.198 40.0604 145.234 40.0604C146.984 40.0604 148.694 39.7234 149.502 39.4298L149.431 34.826C148.827 34.9665 148.136 35.0865 147.188 35.0865C145.179 35.0865 144.516 33.8124 144.516 31.1619V22.9758H149.64V17.4375H144.516V10.5791" fill="white"/>
<path d="M123.491 17.794V39.5718H129.573V28.4186C129.573 27.8185 129.611 27.3002 129.706 26.8202C130.159 24.4685 131.941 22.9799 134.508 22.9799C135.225 22.9799 135.712 23.059 136.252 23.1433V17.434C135.799 17.3523 135.49 17.3088 134.932 17.3088C132.655 17.3088 130.075 18.7566 128.986 21.91H128.836V17.794" fill="white"/>
<path d="M67.1934 17.794V39.5718H73.1205V26.7895C73.1205 26.1895 73.1867 25.5767 73.3984 25.0226C73.8801 23.728 75.0757 22.2292 76.9952 22.2292C79.3813 22.2292 80.5083 24.2464 80.5083 27.1573V39.5718H86.42V26.6363C86.42 26.072 86.4991 25.3801 86.6647 24.8796C87.1389 23.4114 88.4339 22.2292 90.2235 22.2292C92.6351 22.2292 93.8028 24.203 93.8028 27.6347V39.5718H99.7096V26.7308C99.7096 19.9848 96.2834 17.3088 92.393 17.3088C90.6824 17.3088 89.3212 17.7302 88.0974 18.486C87.0624 19.1218 86.1551 20.018 85.3418 21.19H85.2523C84.3168 18.846 82.1194 17.3088 79.2486 17.3088C75.5679 17.3088 73.8955 19.1703 72.9113 20.7431H72.8223V17.794" fill="white"/>
<path d="M181.472 16.8165C182.635 16.8165 183.614 16.2089 183.741 15.4275L184.893 2.35422C184.893 1.05965 183.371 0 181.472 0C179.563 0 178.051 1.05965 178.051 2.35422L179.214 15.4275C179.336 16.2089 180.31 16.8165 181.472 16.8165Z" fill="white"/>
<path d="M174.402 20.9075C174.978 19.8861 174.945 18.7524 174.323 18.2469L163.565 10.7118C162.446 10.0582 160.771 10.837 159.812 12.4865C158.856 14.1334 159.05 15.982 160.146 16.6229L172.057 22.1535C172.819 22.4395 173.816 21.9084 174.402 20.8973" fill="white"/>
<path d="M188.541 20.8966C189.15 21.9078 190.147 22.4388 190.889 22.1682L202.799 16.6223C203.906 15.9686 204.072 14.1378 203.136 12.4909C202.18 10.8414 200.495 10.0677 199.378 10.7086L188.618 18.236C188.021 18.7492 187.978 19.888 188.554 20.9068" fill="white"/>
<path d="M181.472 33.1465C182.635 33.1465 183.614 33.7542 183.741 34.5355L184.893 47.6087C184.893 48.9032 183.371 49.9528 181.472 49.9528C179.563 49.9528 178.051 48.9032 178.051 47.6087L179.214 34.5355C179.336 33.7542 180.31 33.1465 181.472 33.1465Z" fill="white"/>
<path d="M188.541 29.0675C189.15 28.0538 190.147 27.5125 190.889 27.8061L202.799 33.3418C203.906 33.9827 204.072 35.8288 203.136 37.4783C202.18 39.115 200.495 39.8938 199.378 39.2529L188.618 31.7153C188.021 31.2072 187.978 30.0735 188.554 29.0675" fill="white"/>
<path d="M174.402 29.0564C174.978 30.0752 174.945 31.2063 174.323 31.717L163.565 39.2418C162.446 39.8954 160.771 39.1141 159.812 37.4774C158.856 35.8305 159.05 33.9818 160.146 33.3409L172.057 27.8052C172.819 27.5141 173.816 28.0503 174.402 29.0564Z" fill="white"/>
<path d="M206.284 38.1058H206.432C206.633 38.1058 206.715 38.1697 206.738 38.3306C206.781 38.5093 206.804 38.6293 206.848 38.6803H207.23C207.197 38.6421 207.153 38.545 207.13 38.3203C207.087 38.1263 206.988 38.0165 206.848 37.9782V37.9424C207.041 37.899 207.153 37.7688 207.153 37.6079C207.153 37.4624 207.087 37.3577 207.021 37.2913C206.893 37.23 206.771 37.1815 206.501 37.1815C206.261 37.1815 206.085 37.2019 205.945 37.2351V38.6803H206.284V38.1058ZM206.294 37.4471L206.468 37.4241C206.672 37.4241 206.781 37.5186 206.781 37.6513C206.781 37.7994 206.633 37.8684 206.445 37.8684H206.294V37.4471ZM206.511 36.4666C205.675 36.4666 205.012 37.1202 205.012 37.922C205.012 38.7442 205.675 39.3978 206.511 39.3978C207.358 39.3978 208 38.7442 208 37.922C208 37.1202 207.358 36.4666 206.511 36.4666ZM206.511 36.7602C207.153 36.7602 207.63 37.2811 207.63 37.922C207.63 38.568 207.153 39.1042 206.511 39.094C205.869 39.094 205.382 38.568 205.382 37.922C205.382 37.2811 205.869 36.7602 206.501 36.7602" fill="white"/>
</g>
</g>
<defs>
<clipPath id="clip0_582_452">
<rect width="208" height="50" fill="white"/>
</clipPath>
</defs>
</svg>
