<svg width="373" height="56" viewBox="0 0 373 56" fill="none" xmlns="http://www.w3.org/2000/svg">
<path d="M366.812 18.7713L335.641 49.2432L341.831 55.2935L373.002 24.8216L366.812 18.7713Z" fill="#FF904D"/>
<path d="M357.354 9.53331L335.636 30.7646L341.825 36.815L363.544 15.5837L357.354 9.53331Z" fill="#0097B2"/>
<path d="M347.908 0.29538L335.643 12.2861L341.832 18.3365L354.098 6.34576L347.908 0.29538Z" fill="#01BF62"/>
<path d="M50.7118 34.1392H31.0876C31.2218 35.8602 31.7888 37.1729 32.7884 38.082C33.783 38.9912 35.0114 39.4433 36.4636 39.4433C38.6269 39.4433 40.1338 38.5487 40.9792 36.7645H50.2095C49.7371 38.5828 48.8817 40.2212 47.6483 41.6748C46.415 43.1284 44.8683 44.2709 43.0083 45.0974C41.1483 45.9239 39.0695 46.3371 36.7719 46.3371C33.9969 46.3371 31.5302 45.7586 29.3668 44.6015C27.2035 43.4444 25.5126 41.7915 24.2942 39.6426C23.0757 37.4938 22.469 34.9803 22.469 32.107C22.469 29.2338 23.0708 26.7203 24.2693 24.5715C25.4678 22.4226 27.1488 20.7696 29.3171 19.6126C31.4804 18.4555 33.967 17.877 36.7719 17.877C39.5768 17.877 41.944 18.4409 44.0726 19.564C46.2011 20.687 47.8671 22.2913 49.0657 24.3721C50.2642 26.4529 50.866 28.8838 50.866 31.6598C50.866 32.4522 50.8162 33.2787 50.7118 34.1392ZM41.9938 29.4283C41.9938 27.9746 41.4865 26.8176 40.472 25.957C39.4574 25.0965 38.1893 24.6687 36.6675 24.6687C35.1457 24.6687 33.9869 25.0819 32.9923 25.9084C31.9927 26.7349 31.376 27.9066 31.1423 29.4283H41.9938Z" fill="white"/>
<path d="M68.1628 38.0045L74.2997 18.271H83.53L73.4891 45.9339H62.7867L52.7458 18.271H62.0258L68.1628 38.0045Z" fill="white"/>
<path d="M113.702 34.1392H94.078C94.2123 35.8602 94.7793 37.1729 95.7789 38.082C96.7735 38.9912 98.0019 39.4433 99.4541 39.4433C101.617 39.4433 103.124 38.5487 103.97 36.7645H113.2C112.728 38.5828 111.872 40.2212 110.639 41.6748C109.405 43.1284 107.859 44.2709 105.999 45.0974C104.139 45.9239 102.06 46.3371 99.7624 46.3371C96.9874 46.3371 94.5206 45.7586 92.3573 44.6015C90.194 43.4444 88.5031 41.7915 87.2846 39.6426C86.0662 37.4938 85.4595 34.9803 85.4595 32.107C85.4595 29.2338 86.0612 26.7203 87.2598 24.5715C88.4583 22.4226 90.1393 20.7696 92.3076 19.6126C94.4709 18.4555 96.9575 17.877 99.7624 17.877C102.567 17.877 104.935 18.4409 107.063 19.564C109.192 20.687 110.858 22.2913 112.056 24.3721C113.255 26.4529 113.856 28.8838 113.856 31.6598C113.856 32.4522 113.807 33.2787 113.702 34.1392ZM104.979 29.4283C104.979 27.9746 104.472 26.8176 103.457 25.957C102.443 25.0965 101.175 24.6687 99.653 24.6687C98.1312 24.6687 96.9724 25.0819 95.9778 25.9084C94.9782 26.7349 94.3615 27.9066 94.1278 29.4283H104.979Z" fill="white"/>
<path d="M127.09 9.25244V45.9386H118.417V9.25244H127.09Z" fill="white"/>
<path d="M170.655 31.0909C171.904 32.6612 172.53 34.4552 172.53 36.4679C172.53 39.3752 171.491 41.6796 169.412 43.3861C167.333 45.0876 164.434 45.9384 160.714 45.9384H144.128V11.1338H160.152C163.768 11.1338 166.602 11.9457 168.646 13.5646C170.69 15.1836 171.715 17.381 171.715 20.157C171.715 22.2087 171.163 23.9102 170.069 25.2618C168.97 26.6182 167.507 27.5613 165.682 28.0864C167.746 28.5142 169.402 29.5157 170.651 31.0861L170.655 31.0909ZM152.802 25.2132H158.481C159.903 25.2132 160.993 24.9069 161.753 24.2943C162.514 23.6817 162.892 22.7823 162.892 21.5912C162.892 20.4001 162.509 19.491 161.753 18.8638C160.993 18.2367 159.903 17.9207 158.481 17.9207H152.802V25.2083V25.2132ZM162.564 38.1306C163.36 37.484 163.758 36.5506 163.758 35.3303C163.758 34.11 163.345 33.1474 162.514 32.457C161.684 31.7618 160.545 31.4166 159.093 31.4166H152.807V39.1029H159.197C160.649 39.1029 161.773 38.7821 162.569 38.1355L162.564 38.1306Z" fill="white"/>
<path d="M190.026 19.2917C191.548 18.4166 193.239 17.979 195.099 17.979V26.9536H192.717C190.553 26.9536 188.932 27.4106 187.848 28.3149C186.764 29.224 186.226 30.8187 186.226 33.0988V45.9384H177.553V18.2756H186.226V22.8844C187.241 21.3627 188.509 20.1668 190.031 19.2917H190.026Z" fill="white"/>
<path d="M199.182 24.5715C200.281 22.4226 201.778 20.7696 203.668 19.6126C205.562 18.4555 207.676 17.877 210.008 17.877C212.003 17.877 213.753 18.2756 215.255 19.0681C216.757 19.8605 217.916 20.9009 218.731 22.1893V18.2707H227.405V45.9336H218.731V42.0151C217.886 43.3035 216.712 44.3439 215.205 45.1363C213.698 45.9288 211.953 46.3274 209.959 46.3274C207.661 46.3274 205.562 45.7391 203.672 44.5675C201.778 43.3958 200.281 41.7234 199.187 39.56C198.088 37.3965 197.541 34.8928 197.541 32.0487C197.541 29.2046 198.088 26.7106 199.187 24.5617L199.182 24.5715ZM216.931 27.0995C215.733 25.8793 214.27 25.2667 212.545 25.2667C210.819 25.2667 209.357 25.8695 208.158 27.0752C206.96 28.2809 206.358 29.9436 206.358 32.0584C206.358 34.1733 206.96 35.8505 208.158 37.0903C209.357 38.33 210.819 38.9474 212.545 38.9474C214.27 38.9474 215.733 38.3348 216.931 37.1146C218.13 35.8943 218.731 34.2219 218.731 32.107C218.731 29.9922 218.13 28.3247 216.931 27.0995Z" fill="white"/>
<path d="M258.87 21.1245C260.849 23.2247 261.839 26.1077 261.839 29.7734V45.9335H253.215V30.911C253.215 29.0587 252.723 27.6245 251.743 26.5987C250.764 25.5729 249.446 25.0624 247.79 25.0624C246.134 25.0624 244.816 25.5729 243.836 26.5987C242.856 27.6245 242.364 29.0636 242.364 30.911V45.9335H233.691V18.2707H242.364V21.9412C243.244 20.721 244.428 19.7535 245.915 19.0388C247.402 18.329 249.078 17.9741 250.938 17.9741C254.25 17.9741 256.896 19.0242 258.875 21.1245H258.87Z" fill="white"/>
<path d="M267.797 24.5715C268.896 22.4227 270.393 20.7697 272.288 19.6126C274.183 18.4556 276.296 17.877 278.629 17.877C280.489 17.877 282.184 18.2562 283.726 19.0195C285.263 19.7779 286.471 20.8038 287.352 22.0921V9.25244H296.025V45.9386H287.352V41.9714C286.541 43.2938 285.382 44.3488 283.875 45.1461C282.368 45.9386 280.623 46.3372 278.629 46.3372C276.296 46.3372 274.183 45.7489 272.288 44.5773C270.393 43.4056 268.896 41.7332 267.797 39.5698C266.698 37.4063 266.151 34.9026 266.151 32.0585C266.151 29.2144 266.698 26.7204 267.797 24.5715ZM285.546 27.0996C284.348 25.8793 282.886 25.2668 281.16 25.2668C279.434 25.2668 277.972 25.8696 276.774 27.0753C275.575 28.281 274.973 29.9437 274.973 32.0585C274.973 34.1733 275.575 35.8506 276.774 37.0903C277.972 38.3301 279.434 38.9475 281.16 38.9475C282.886 38.9475 284.348 38.3349 285.546 37.1146C286.745 35.8944 287.347 34.2219 287.347 32.1071C287.347 29.9923 286.745 28.3247 285.546 27.0996Z" fill="white"/>
<path d="M307.224 45.0974C305.3 44.2709 303.778 43.1382 302.659 41.6991C301.545 40.2601 300.918 38.6509 300.784 36.8666H309.353C309.452 37.8244 309.91 38.6022 310.721 39.1954C311.531 39.7885 312.531 40.0899 313.715 40.0899C314.794 40.0899 315.634 39.8857 316.226 39.4725C316.818 39.0592 317.111 38.5245 317.111 37.8633C317.111 37.0708 316.688 36.4826 315.843 36.1034C314.998 35.7241 313.63 35.3012 311.735 34.8393C309.706 34.3775 308.015 33.8913 306.663 33.376C305.31 32.8655 304.141 32.0536 303.161 30.9451C302.182 29.8367 301.689 28.3441 301.689 26.4578C301.689 24.8729 302.137 23.4241 303.032 22.1212C303.927 20.8183 305.245 19.7827 306.986 19.0243C308.726 18.2659 310.795 17.8818 313.197 17.8818C316.748 17.8818 319.543 18.7424 321.592 20.4585C323.636 22.1795 324.815 24.4597 325.118 27.2989H317.106C316.972 26.3411 316.539 25.5827 315.813 25.0188C315.087 24.4548 314.132 24.1777 312.949 24.1777C311.934 24.1777 311.158 24.3673 310.616 24.7465C310.074 25.1257 309.806 25.6459 309.806 26.3071C309.806 27.0995 310.238 27.6975 311.099 28.0913C311.959 28.49 313.307 28.8838 315.132 29.2824C317.226 29.8124 318.936 30.3326 320.254 30.843C321.572 31.3535 322.731 32.18 323.731 33.3225C324.725 34.465 325.242 35.9915 325.277 37.907C325.277 39.526 324.81 40.9747 323.885 42.2436C322.955 43.5174 321.617 44.5189 319.876 45.2433C318.136 45.9677 316.117 46.3323 313.814 46.3323C311.347 46.3323 309.149 45.9191 307.22 45.0926L307.224 45.0974Z" fill="white"/>
<path d="M8.67326 11.1338H0V36.8082H8.67326V11.1338Z" fill="white"/>
<path d="M8.67326 39.3945H0V45.9383H20.0321V39.3945H8.67326Z" fill="white"/>
</svg>
