<svg width="217" height="32" viewBox="0 0 217 32" fill="none" xmlns="http://www.w3.org/2000/svg">
<path d="M213.4 10.7512L195.266 28.4803L198.867 32.0006L217.001 14.2715L213.4 10.7512Z" fill="#FF904D"/>
<path d="M207.898 5.37647L195.263 17.7292L198.863 21.2495L211.498 8.89669L207.898 5.37647Z" fill="#0097B2"/>
<path d="M202.402 0.00171172L195.267 6.97815L198.867 10.4984L206.003 3.52193L202.402 0.00171172Z" fill="#01BF62"/>
<path d="M29.5026 19.6926H18.0858C18.1639 20.694 18.4937 21.4577 19.0753 21.9866C19.6539 22.5156 20.3686 22.7786 21.2134 22.7786C22.472 22.7786 23.3486 22.2582 23.8405 21.2201H29.2104C28.9355 22.278 28.4379 23.2312 27.7203 24.077C27.0028 24.9227 26.103 25.5875 25.0209 26.0683C23.9388 26.5492 22.7295 26.7896 21.3928 26.7896C19.7783 26.7896 18.3433 26.453 17.0847 25.7798C15.8262 25.1066 14.8424 24.1449 14.1336 22.8946C13.4248 21.6444 13.0718 20.182 13.0718 18.5103C13.0718 16.8386 13.4219 15.3762 14.1191 14.1259C14.8164 12.8757 15.7943 11.914 17.0558 11.2408C18.3144 10.5676 19.761 10.231 21.3928 10.231C23.0246 10.231 24.4018 10.5591 25.6401 11.2125C26.8784 11.8659 27.8476 12.7993 28.5449 14.01C29.2422 15.2206 29.5923 16.6349 29.5923 18.25C29.5923 18.7111 29.5633 19.192 29.5026 19.6926ZM24.4307 16.9517C24.4307 16.106 24.1356 15.4328 23.5454 14.9321C22.9551 14.4314 22.2174 14.1825 21.332 14.1825C20.4467 14.1825 19.7726 14.4229 19.1939 14.9038C18.6124 15.3847 18.2536 16.0664 18.1176 16.9517H24.4307Z" fill="white"/>
<path d="M39.6549 21.9414L43.2252 10.4601H48.595L42.7536 26.5548H36.5273L30.6858 10.4601H36.0846L39.6549 21.9414Z" fill="white"/>
<path d="M66.1486 19.6926H54.7318C54.8099 20.694 55.1397 21.4577 55.7213 21.9866C56.2999 22.5156 57.0146 22.7786 57.8594 22.7786C59.118 22.7786 59.9946 22.2582 60.4865 21.2201H65.8564C65.5815 22.278 65.0839 23.2312 64.3663 24.077C63.6488 24.9227 62.749 25.5875 61.6669 26.0683C60.5848 26.5492 59.3755 26.7896 58.0388 26.7896C56.4243 26.7896 54.9893 26.453 53.7307 25.7798C52.4722 25.1066 51.4884 24.1449 50.7796 22.8946C50.0708 21.6444 49.7178 20.182 49.7178 18.5103C49.7178 16.8386 50.0679 15.3762 50.7651 14.1259C51.4624 12.8757 52.4403 11.914 53.7018 11.2408C54.9604 10.5676 56.407 10.231 58.0388 10.231C59.6706 10.231 61.0478 10.5591 62.2861 11.2125C63.5244 11.8659 64.4936 12.7993 65.1909 14.01C65.8882 15.2206 66.2383 16.6349 66.2383 18.25C66.2383 18.7111 66.2093 19.192 66.1486 19.6926ZM61.0738 16.9517C61.0738 16.106 60.7787 15.4328 60.1885 14.9321C59.5982 14.4314 58.8605 14.1825 57.9751 14.1825C57.0898 14.1825 56.4157 14.4229 55.837 14.9038C55.2555 15.3847 54.8967 16.0664 54.7607 16.9517H61.0738Z" fill="white"/>
<path d="M73.9372 5.21301V26.5577H68.8914V5.21301H73.9372Z" fill="white"/>
<path d="M99.282 17.9192C100.008 18.8328 100.373 19.8766 100.373 21.0476C100.373 22.7391 99.7681 24.0799 98.5587 25.0727C97.3493 26.0627 95.6625 26.5577 93.4984 26.5577H83.8494V6.30774H93.1714C95.2748 6.30774 96.924 6.78012 98.1131 7.72204C99.3022 8.66397 99.8983 9.9425 99.8983 11.5576C99.8983 12.7513 99.5771 13.7413 98.9406 14.5277C98.3012 15.3168 97.4506 15.8656 96.3887 16.1711C97.5894 16.42 98.5529 17.0027 99.2791 17.9163L99.282 17.9192ZM88.8952 14.4994H92.1993C93.0268 14.4994 93.6604 14.3212 94.1031 13.9648C94.5457 13.6084 94.7656 13.0851 94.7656 12.3921C94.7656 11.6991 94.5428 11.1701 94.1031 10.8052C93.6604 10.4403 93.0268 10.2565 92.1993 10.2565H88.8952V14.4965V14.4994ZM94.5747 22.015C95.0376 21.6388 95.269 21.0957 95.269 20.3857C95.269 19.6757 95.0289 19.1157 94.5457 18.714C94.0626 18.3095 93.4 18.1087 92.5552 18.1087H88.8981V22.5807H92.6159C93.4608 22.5807 94.1146 22.394 94.5776 22.0178L94.5747 22.015Z" fill="white"/>
<path d="M110.551 11.0541C111.437 10.545 112.42 10.2904 113.502 10.2904V15.512H112.116C110.858 15.512 109.915 15.7779 109.284 16.304C108.653 16.833 108.341 17.7607 108.341 19.0874V26.5577H103.295V10.463H108.341V13.1445C108.931 12.2591 109.669 11.5633 110.554 11.0541H110.551Z" fill="white"/>
<path d="M115.878 14.1259C116.517 12.8757 117.388 11.914 118.488 11.2408C119.59 10.5676 120.82 10.231 122.176 10.231C123.337 10.231 124.355 10.4629 125.229 10.924C126.103 11.385 126.777 11.9903 127.251 12.7399V10.4601H132.297V26.5548H127.251V24.275C126.759 25.0246 126.077 25.6299 125.2 26.0909C124.323 26.552 123.308 26.784 122.148 26.784C120.811 26.784 119.59 26.4417 118.49 25.76C117.388 25.0783 116.517 24.1053 115.881 22.8465C115.241 21.5878 114.923 20.1311 114.923 18.4763C114.923 16.8216 115.241 15.3705 115.881 14.1203L115.878 14.1259ZM126.204 15.5968C125.507 14.8868 124.656 14.5304 123.652 14.5304C122.648 14.5304 121.797 14.8812 121.1 15.5827C120.403 16.2842 120.053 17.2516 120.053 18.482C120.053 19.7124 120.403 20.6883 121.1 21.4096C121.797 22.1309 122.648 22.4901 123.652 22.4901C124.656 22.4901 125.507 22.1337 126.204 21.4237C126.901 20.7138 127.251 19.7407 127.251 18.5103C127.251 17.2798 126.901 16.3096 126.204 15.5968Z" fill="white"/>
<path d="M150.603 12.1204C151.754 13.3424 152.33 15.0197 152.33 17.1525V26.5548H147.313V17.8144C147.313 16.7367 147.027 15.9023 146.457 15.3054C145.887 14.7086 145.12 14.4116 144.156 14.4116C143.193 14.4116 142.426 14.7086 141.856 15.3054C141.286 15.9023 141 16.7395 141 17.8144V26.5548H135.954V10.46H141V12.5956C141.512 11.8856 142.201 11.3227 143.066 10.9069C143.931 10.494 144.906 10.2875 145.988 10.2875C147.915 10.2875 149.454 10.8985 150.606 12.1204H150.603Z" fill="white"/>
<path d="M155.796 14.1259C156.435 12.8757 157.306 11.914 158.409 11.2408C159.511 10.5676 160.741 10.231 162.098 10.231C163.18 10.231 164.166 10.4516 165.063 10.8957C165.957 11.3369 166.66 11.9338 167.172 12.6834V5.21301H172.218V26.5577H167.172V24.2495C166.701 25.0189 166.027 25.6327 165.15 26.0966C164.273 26.5577 163.258 26.7896 162.098 26.7896C160.741 26.7896 159.511 26.4473 158.409 25.7656C157.306 25.084 156.435 24.1109 155.796 22.8522C155.157 21.5935 154.838 20.1367 154.838 18.482C154.838 16.8273 155.157 15.3762 155.796 14.1259ZM166.122 15.5968C165.425 14.8868 164.574 14.5304 163.57 14.5304C162.566 14.5304 161.716 14.8812 161.018 15.5827C160.321 16.2842 159.971 17.2516 159.971 18.482C159.971 19.7124 160.321 20.6883 161.018 21.4096C161.716 22.1309 162.566 22.4901 163.57 22.4901C164.574 22.4901 165.425 22.1337 166.122 21.4237C166.819 20.7138 167.169 19.7407 167.169 18.5103C167.169 17.2798 166.819 16.3096 166.122 15.5968Z" fill="white"/>
<path d="M178.734 26.0683C177.614 25.5874 176.729 24.9284 176.078 24.0911C175.43 23.2538 175.065 22.3176 174.987 21.2795H179.972C180.03 21.8367 180.296 22.2893 180.768 22.6344C181.239 22.9795 181.821 23.1548 182.51 23.1548C183.137 23.1548 183.626 23.036 183.971 22.7956C184.315 22.5552 184.486 22.244 184.486 21.8593C184.486 21.3983 184.24 21.056 183.748 20.8354C183.256 20.6147 182.46 20.3687 181.358 20.0999C180.178 19.8312 179.194 19.5484 178.407 19.2485C177.62 18.9515 176.94 18.4791 176.37 17.8342C175.8 17.1893 175.514 16.3209 175.514 15.2234C175.514 14.3013 175.774 13.4584 176.295 12.7003C176.816 11.9422 177.582 11.3397 178.595 10.8985C179.608 10.4572 180.811 10.2338 182.209 10.2338C184.274 10.2338 185.9 10.7344 187.092 11.7329C188.282 12.7343 188.967 14.0609 189.144 15.7128H184.483C184.405 15.1555 184.153 14.7143 183.73 14.3862C183.308 14.058 182.753 13.8968 182.064 13.8968C181.474 13.8968 181.022 14.0071 180.707 14.2278C180.392 14.4484 180.235 14.751 180.235 15.1357C180.235 15.5968 180.487 15.9447 180.988 16.1738C181.488 16.4058 182.272 16.6349 183.334 16.8668C184.552 17.1752 185.547 17.4778 186.314 17.7748C187.081 18.0718 187.755 18.5527 188.337 19.2174C188.915 19.8821 189.216 20.7703 189.236 21.8848C189.236 22.8267 188.964 23.6696 188.426 24.4079C187.885 25.149 187.107 25.7317 186.094 26.1531C185.082 26.5746 183.907 26.7868 182.567 26.7868C181.132 26.7868 179.854 26.5463 178.731 26.0655L178.734 26.0683Z" fill="white"/>
<path d="M5.04584 6.30774H0V21.2456H5.04584V6.30774Z" fill="white"/>
<path d="M5.04584 22.7504H0V26.5577H11.654V22.7504H5.04584Z" fill="white"/>
</svg>
