<svg width="400" height="50" viewBox="0 0 400 50" fill="none" xmlns="http://www.w3.org/2000/svg">
<path fill-rule="evenodd" clip-rule="evenodd" d="M43.2845 12.3978L42.6007 12.7384C40.7317 10.4223 38.9538 8.44687 37.2671 6.81199C35.5804 5.1771 33.9393 3.97366 32.3437 3.20163C31.5687 2.83833 30.167 2.53179 28.1384 2.28202C26.1097 2.03224 23.7507 1.90736 21.061 1.90736C20.6052 1.90736 20.0809 1.91871 19.4883 1.94142C18.8957 1.96412 18.3258 1.98683 17.7788 2.00954C17.2317 2.03224 16.7189 2.05495 16.2402 2.07766C15.7616 2.10036 15.4083 2.11172 15.1804 2.11172C15.1348 2.3842 15.0778 2.65667 15.0094 2.92916C14.941 3.20164 14.884 3.51953 14.8385 3.88283C14.7929 4.24614 14.7473 4.71162 14.7017 5.27929C14.6561 5.84696 14.6105 6.53951 14.5649 7.35695C14.5193 8.94642 14.4852 10.6835 14.4624 12.5681C14.4396 14.4528 14.4282 16.2352 14.4282 17.9155V24.3869H15.659C16.3884 24.3869 17.1976 24.3642 18.0865 24.3188C18.9754 24.2734 19.8986 24.2166 20.8559 24.1485C21.8132 24.0804 22.611 23.9782 23.2492 23.842C24.8903 23.4787 26.1895 23.0018 27.1468 22.4114C28.1042 21.8211 28.8563 21.1172 29.4034 20.2997C29.9504 19.4823 30.3379 18.5854 30.5658 17.609C30.7938 16.6326 30.9989 15.5768 31.1813 14.4414H32.0018V36.376H31.1813C30.8166 34.9228 30.2923 33.3901 29.6085 31.7779C28.9247 30.1657 28.1042 28.9283 27.1468 28.0654C26.2807 27.2934 25.3576 26.7144 24.3775 26.3283C23.3973 25.9423 22.2463 25.7039 20.9243 25.6131C20.2405 25.5677 19.6478 25.5336 19.1464 25.5109C18.6449 25.4882 18.1663 25.4768 17.7104 25.4768H14.4282V33.9237C14.4282 35.1953 14.4396 36.3647 14.4624 37.4319C14.4852 38.4991 14.4966 39.4187 14.4966 40.1907C14.5421 41.644 14.6219 43.0177 14.7359 44.312C14.8498 45.6063 15.112 46.5713 15.5223 47.2071C15.9325 47.8429 16.6277 48.3311 17.6078 48.6717C18.588 49.0123 20.0125 49.228 21.8816 49.3188V50H0V49.3188C1.13967 49.1371 2.19955 48.842 3.17967 48.4332C4.15979 48.0245 4.96894 47.4569 5.60716 46.7302C5.83509 46.4578 6.01744 46.0604 6.1542 45.5381C6.29096 45.0159 6.41632 44.4142 6.53029 43.733C6.64425 43.0518 6.72403 42.3365 6.76962 41.5872C6.8152 40.8379 6.838 40.0999 6.838 39.3733C6.838 38.7375 6.84939 37.8747 6.87219 36.7847C6.89498 35.6948 6.91777 34.5027 6.94057 33.2084C6.96336 31.9142 6.97476 30.5858 6.97476 29.2234V11.9891C6.97476 11.1717 6.96336 10.3315 6.94057 9.46866C6.91777 8.60581 6.87219 7.78838 6.80381 7.01635C6.73543 6.24432 6.62146 5.55177 6.46191 4.93869C6.30235 4.32561 6.08582 3.88284 5.8123 3.61035C5.12849 2.88374 4.39912 2.41826 3.62414 2.2139C2.84916 2.00954 1.84627 1.81653 0.61542 1.63488V0.953678H38.6347L43.2845 12.3978ZM118.001 50V49.3188C118.138 49.3188 118.468 49.2734 118.993 49.1826C119.517 49.0917 120.064 48.9328 120.634 48.7057C121.203 48.4787 121.705 48.1608 122.138 47.752C122.571 47.3433 122.788 46.8211 122.788 46.1853C122.788 45.7766 122.662 45.1067 122.412 44.1757C122.161 43.2448 121.808 42.1095 121.352 40.7698C120.896 39.4301 120.372 37.9428 119.779 36.3079C119.186 34.673 118.548 32.97 117.864 31.1989H99.6752C98.9914 32.9246 98.3304 34.5708 97.6922 36.1376C97.054 37.7044 96.4158 39.2825 95.7775 40.8719C94.8202 43.3243 94.3416 45.0499 94.3416 46.049C94.3416 46.6394 94.5239 47.1276 94.8886 47.5136C95.2533 47.8996 95.7206 48.2175 96.2904 48.4673C96.8602 48.7171 97.4756 48.8987 98.1366 49.0123C98.7977 49.1258 99.4245 49.228 100.017 49.3188V50H85.4522V49.2507C86.6374 49.1144 87.6517 48.7966 88.4951 48.297C89.3384 47.7975 89.8285 47.4569 89.9652 47.2752C90.2843 46.9573 90.8086 46.208 91.538 45.0272C92.2674 43.8465 93.1563 42.0981 94.2048 39.782C95.1621 37.6476 96.2334 35.218 97.4186 32.4932C98.6039 29.7684 99.8233 26.9641 101.077 24.0804C102.331 21.1966 103.573 18.2902 104.804 15.361C106.035 12.4319 107.197 9.69574 108.291 7.15259L107.607 5.65395C108.428 5.29064 109.169 4.85922 109.83 4.35967C110.491 3.86012 111.072 3.33788 111.573 2.79292C112.075 2.24795 112.496 1.72571 112.838 1.22616C113.18 0.72661 113.442 0.317894 113.625 0H114.172C115.585 3.76932 116.93 7.34558 118.206 10.7289C119.483 14.1122 120.702 17.3706 121.864 20.5041C123.027 23.6376 124.155 26.6689 125.249 29.5981C126.343 32.5273 127.437 35.4223 128.532 38.2834C129.033 39.6912 129.5 40.8606 129.933 41.7915C130.366 42.7225 130.856 43.7784 131.403 44.9591C131.495 45.1408 131.7 45.4587 132.019 45.9128C132.338 46.3669 132.76 46.8324 133.284 47.3093C133.808 47.7861 134.458 48.2062 135.233 48.5695C136.008 48.9328 136.919 49.1371 137.968 49.1826V50H118.001ZM109.043 8.71935C108.77 9.30972 108.371 10.2407 107.847 11.5123C107.322 12.7838 106.673 14.3279 105.898 16.1444C105.123 17.961 104.268 20.0159 103.334 22.3093C102.399 24.6026 101.385 27.089 100.291 29.7684H117.317C116.542 27.7248 115.756 25.6812 114.958 23.6376C114.16 21.594 113.385 19.6299 112.633 17.7452C111.881 15.8606 111.197 14.1349 110.582 12.5681C109.966 11.0014 109.454 9.71844 109.043 8.71935ZM205.231 50H184.512V49.3188C185.652 49.1371 186.711 48.842 187.692 48.4332C188.672 48.0245 189.504 47.4342 190.187 46.6621C190.415 46.3896 190.586 46.0036 190.7 45.5041C190.814 45.0045 190.905 44.4142 190.974 43.733C191.042 43.0518 191.088 42.3365 191.111 41.5872C191.133 40.8379 191.145 40.0999 191.145 39.3733C191.145 38.7375 191.156 37.8747 191.179 36.7847C191.202 35.6948 191.225 34.5027 191.247 33.2084C191.27 31.9142 191.282 30.5858 191.282 29.2234V9.53678C191.282 8.71934 191.247 7.95868 191.179 7.25477C191.111 6.55086 191.008 5.91508 190.871 5.34741C190.734 4.77974 190.529 4.33697 190.256 4.01907C189.618 3.24704 188.831 2.69074 187.897 2.35014C186.962 2.00953 185.902 1.77112 184.717 1.63488V0.953678H205.163V1.63488C204.205 1.77112 203.18 2.02089 202.086 2.3842C200.991 2.7475 200.148 3.47411 199.556 4.56403C199.145 5.33606 198.929 6.31244 198.906 7.49319C198.883 8.67394 198.849 9.78655 198.803 10.8311C198.803 11.9664 198.792 13.0904 198.769 14.203C198.746 15.3156 198.735 16.4396 198.735 17.5749V40.3951C198.735 41.7121 198.758 42.9836 198.803 44.2098C198.849 45.436 199.054 46.2988 199.419 46.7984C199.966 47.5704 200.832 48.1608 202.017 48.5695C203.202 48.9782 204.274 49.228 205.231 49.3188V50ZM308.736 50H294.718C294.307 49.5913 294.011 49.2847 293.829 49.0804C293.646 48.876 293.441 48.6376 293.213 48.3651C292.985 48.0926 292.7 47.6953 292.359 47.173C292.017 46.6508 291.481 45.8674 290.752 44.8229C289.885 43.5513 289.122 42.4046 288.461 41.3828C287.8 40.361 287.127 39.3506 286.444 38.3515C285.76 37.3524 285.019 36.342 284.221 35.3202C283.424 34.2984 282.478 33.1517 281.384 31.8801C280.472 30.8356 279.48 29.8592 278.409 28.951C277.338 28.0427 276.209 27.475 275.024 27.248C274.158 27.0663 273.497 26.9755 273.041 26.9755C272.631 26.9755 272.107 26.9528 271.468 26.9074V34.6049C271.468 36.7848 271.491 38.624 271.537 40.1226C271.582 41.5758 271.628 42.8247 271.674 43.8692C271.719 44.9137 271.97 45.7766 272.426 46.4578C272.79 47.0481 273.497 47.6499 274.546 48.2629C275.594 48.876 277.053 49.228 278.922 49.3188V50H257.04V49.3188C258.18 49.1371 259.274 48.8647 260.323 48.5014C261.371 48.1381 262.192 47.5931 262.784 46.8665C263.012 46.594 263.194 46.1853 263.331 45.6403C263.468 45.0954 263.571 44.4823 263.639 43.8011C263.707 43.1199 263.764 42.3933 263.81 41.6213C263.855 40.8492 263.878 40.0999 263.878 39.3733C263.878 38.7375 263.89 37.8747 263.912 36.7847C263.935 35.6948 263.958 34.5027 263.981 33.2084C264.004 31.9142 264.015 30.5858 264.015 29.2234V11.9891C264.015 11.1717 264.004 10.3429 263.981 9.50272C263.958 8.66257 263.912 7.86785 263.844 7.11853C263.776 6.36921 263.662 5.68801 263.502 5.07493C263.343 4.46185 263.126 4.01907 262.853 3.74659C262.169 3.01998 261.405 2.53179 260.562 2.28202C259.719 2.03224 258.681 1.81653 257.451 1.63488V0.953678H260.254C261.804 0.953678 263.559 0.942325 265.519 0.919618C267.48 0.896912 269.44 0.885559 271.4 0.885559H276.187C279.241 0.885559 281.953 0.976384 284.324 1.15804C286.694 1.33969 288.86 1.95276 290.82 2.99728C292.826 4.04179 294.444 5.46094 295.675 7.25477C296.906 9.0486 297.521 11.3079 297.521 14.0327C297.521 15.713 297.214 17.223 296.598 18.5627C295.983 19.9024 295.162 21.0831 294.136 22.1049C293.111 23.1267 291.914 24.0009 290.546 24.7275C289.179 25.4541 287.743 26.0672 286.239 26.5668V26.7711C287.014 27.1798 287.766 27.7702 288.495 28.5422C289.224 29.3143 289.931 30.1771 290.615 31.1308C291.8 32.8565 293.088 34.7184 294.478 36.7166C295.869 38.7148 297.111 40.4859 298.205 42.03C299.892 44.3915 301.533 46.1172 303.128 47.2071C304.724 48.297 306.593 49.0009 308.736 49.3188V50ZM289.658 13.624C289.658 11.3533 289.088 9.33243 287.948 7.56131C286.808 5.79018 285.144 4.38238 282.956 3.33787C281.862 2.83833 280.711 2.47502 279.503 2.24796C278.295 2.02089 277.03 1.90736 275.708 1.90736C274.751 1.90736 273.976 1.93006 273.383 1.97548C272.79 2.02089 272.335 2.0663 272.016 2.11172C271.97 2.3842 271.924 2.62261 271.879 2.82698C271.833 3.03134 271.799 3.29246 271.776 3.61035C271.753 3.92825 271.731 4.37102 271.708 4.93869C271.685 5.50636 271.651 6.31244 271.605 7.35695C271.56 8.94642 271.525 10.7402 271.503 12.7384C271.48 14.7366 271.468 16.6667 271.468 18.5286V26.0218C273.338 26.0218 275.081 25.9423 276.7 25.7834C278.318 25.6244 279.879 25.2952 281.384 24.7956C282.842 24.3415 284.096 23.7284 285.144 22.9564C286.193 22.1844 287.048 21.3102 287.709 20.3338C288.37 19.3574 288.86 18.3015 289.179 17.1662C289.498 16.0309 289.658 14.8501 289.658 13.624ZM400 36.9891L396.581 50H354.732V49.3188C355.872 49.1371 356.932 48.842 357.912 48.4332C358.892 48.0245 359.701 47.4569 360.34 46.7302C360.568 46.4578 360.75 46.0604 360.887 45.5381C361.023 45.0159 361.149 44.4142 361.263 43.733C361.377 43.0518 361.456 42.3365 361.502 41.5872C361.548 40.8379 361.57 40.0999 361.57 39.3733C361.57 38.7375 361.582 37.8747 361.605 36.7847C361.627 35.6948 361.65 34.5027 361.673 33.2084C361.696 31.9142 361.707 30.5858 361.707 29.2234C361.707 27.8156 361.707 26.4986 361.707 25.2725V11.9891C361.707 11.1717 361.696 10.3315 361.673 9.46866C361.65 8.60581 361.605 7.78838 361.536 7.01635C361.468 6.24432 361.354 5.55177 361.194 4.93869C361.035 4.32561 360.818 3.88284 360.545 3.61035C359.861 2.88374 359.132 2.41826 358.357 2.2139C357.582 2.00954 356.579 1.81653 355.348 1.63488V0.953678H393.094L397.743 12.1935L397.06 12.5341C393.367 7.9473 389.903 4.85923 386.666 3.26975C385.891 2.90645 384.455 2.58856 382.358 2.31608C380.261 2.0436 377.708 1.90736 374.699 1.90736C373.742 1.90736 372.751 1.94142 371.725 2.00954C370.699 2.07766 369.958 2.15713 369.503 2.24796C369.411 2.97457 369.332 4.47319 369.263 6.74387C369.195 9.01454 369.161 11.6485 369.161 14.6458C369.161 16.3715 369.161 17.8247 369.161 19.0054C369.161 20.1862 369.172 21.1512 369.195 21.9005C369.218 22.6499 369.229 23.2289 369.229 23.6376C369.229 24.0009 369.229 24.2507 369.229 24.3869C369.457 24.3869 369.913 24.3869 370.597 24.3869C371.28 24.3869 372.067 24.3642 372.956 24.3188C373.845 24.2734 374.734 24.2166 375.623 24.1485C376.511 24.0804 377.252 23.9782 377.845 23.842C379.212 23.5241 380.352 23.0926 381.264 22.5477C382.176 22.0027 382.916 21.3442 383.486 20.5722C384.056 19.8002 384.512 18.9033 384.854 17.8815C385.196 16.8597 385.503 15.713 385.777 14.4414H386.598V35.8992H385.777C385.412 34.446 384.854 32.9473 384.102 31.4033C383.349 29.8592 382.563 28.7012 381.743 27.9292C381.013 27.2934 380.136 26.7711 379.11 26.3624C378.084 25.9537 376.888 25.7039 375.52 25.6131C374.836 25.5677 374.266 25.5336 373.81 25.5109C373.355 25.4882 372.899 25.4768 372.443 25.4768C372.033 25.4768 371.577 25.4768 371.075 25.4768C370.619 25.4768 370.027 25.4768 369.297 25.4768C369.206 26.1126 369.161 27.0436 369.161 28.2698C369.161 29.4959 369.161 30.7675 369.161 32.0845C369.161 32.6748 369.161 33.356 369.161 34.1281C369.161 34.9001 369.161 35.6721 369.161 36.4441C369.161 37.1708 369.172 37.8633 369.195 38.5218C369.218 39.1803 369.229 39.7366 369.229 40.1907C369.275 41.644 369.354 43.0177 369.468 44.312C369.582 45.6063 369.844 46.5713 370.255 47.2071C370.665 47.8429 371.645 48.297 373.195 48.5695C374.745 48.842 376.432 48.9782 378.255 48.9782C379.03 48.9782 380.022 48.9555 381.23 48.9101C382.438 48.8647 383.703 48.7511 385.025 48.5695C386.484 48.3878 387.828 48.0359 389.059 47.5136C390.29 46.9914 391.475 46.2534 392.615 45.2997C393.755 44.346 394.86 43.1767 395.931 41.7915C397.003 40.4064 398.108 38.7375 399.248 36.7847L400 36.9891Z" fill="white"/>
</svg>
