<svg width="242" height="40" viewBox="0 0 242 40" fill="none" xmlns="http://www.w3.org/2000/svg">
<path d="M19.5716 28.4352C18.7719 29.0048 13.6406 25.394 12.6578 25.3861C11.675 25.3782 6.48592 28.906 5.69553 28.3236C4.90515 27.7411 6.76331 21.759 6.46719 20.8246C6.17107 19.8902 1.20281 16.0591 1.51403 15.1296C1.82531 14.2 8.10505 14.1137 8.90477 13.5441C9.70449 12.9745 11.8231 7.07905 12.8059 7.08692C13.7886 7.09486 15.8115 13.0236 16.6019 13.6061C17.3923 14.1884 23.6699 14.3759 23.9661 15.3103C24.2622 16.2447 19.2327 19.9953 18.9214 20.9248C18.6102 21.8544 20.3713 27.8656 19.5716 28.4352Z" fill="#FFBD5A"/>
<path d="M47.5716 28.4352C46.7719 29.0048 41.6406 25.394 40.6578 25.3861C39.675 25.3782 34.4859 28.906 33.6955 28.3236C32.9051 27.7411 34.7633 21.759 34.4672 20.8246C34.1711 19.8902 29.2028 16.0591 29.514 15.1296C29.8253 14.2 36.105 14.1137 36.9048 13.5441C37.7045 12.9745 39.8231 7.07905 40.8059 7.08692C41.7886 7.09486 43.8115 13.0236 44.6019 13.6061C45.3923 14.1884 51.6699 14.3759 51.9661 15.3103C52.2622 16.2447 47.2327 19.9953 46.9214 20.9248C46.6102 21.8544 48.3713 27.8656 47.5716 28.4352Z" fill="#FFBD5A"/>
<path d="M75.5716 28.4352C74.7719 29.0048 69.6406 25.394 68.6578 25.3861C67.675 25.3782 62.4859 28.906 61.6955 28.3236C60.9051 27.7411 62.7633 21.759 62.4672 20.8246C62.1711 19.8902 57.2028 16.0591 57.514 15.1296C57.8253 14.2 64.105 14.1137 64.9048 13.5441C65.7045 12.9745 67.8231 7.07905 68.8059 7.08692C69.7886 7.09486 71.8115 13.0236 72.6019 13.6061C73.3923 14.1884 79.6699 14.3759 79.9661 15.3103C80.2622 16.2447 75.2327 19.9953 74.9214 20.9248C74.6102 21.8544 76.3713 27.8656 75.5716 28.4352Z" fill="#FFBD5A"/>
<path d="M103.572 28.4352C102.772 29.0048 97.6406 25.394 96.6578 25.3861C95.675 25.3782 90.4859 28.906 89.6955 28.3236C88.9051 27.7411 90.7633 21.759 90.4672 20.8246C90.1711 19.8902 85.2028 16.0591 85.514 15.1296C85.8253 14.2 92.105 14.1137 92.9048 13.5441C93.7045 12.9745 95.8231 7.07905 96.8059 7.08692C97.7886 7.09486 99.8115 13.0236 100.602 13.6061C101.392 14.1884 107.67 14.3759 107.966 15.3103C108.262 16.2447 103.233 19.9953 102.921 20.9248C102.61 21.8544 104.371 27.8656 103.572 28.4352Z" fill="#FFBD5A"/>
<path d="M131.572 28.4352C130.772 29.0048 125.641 25.394 124.658 25.3861C123.675 25.3782 118.486 28.906 117.696 28.3236C116.905 27.7411 118.763 21.759 118.467 20.8246C118.171 19.8902 113.203 16.0591 113.514 15.1296C113.825 14.2 120.105 14.1137 120.905 13.5441C121.704 12.9745 123.823 7.07905 124.806 7.08692C125.789 7.09486 127.812 13.0236 128.602 13.6061C129.392 14.1884 135.67 14.3759 135.966 15.3103C136.262 16.2447 131.233 19.9953 130.921 20.9248C130.61 21.8544 132.371 27.8656 131.572 28.4352Z" fill="#FFBD5A"/>
<g filter="url(#filter0_d_582_253)">
<circle cx="168" cy="18" r="15.5362" fill="#0C031E" stroke="url(#paint0_linear_582_253)" stroke-width="0.927536"/>
<g clip-path="url(#clip0_582_253)">
<path d="M175.189 18.3968C175.189 17.7885 175.138 17.3445 175.029 16.8842H167.92V19.63H172.093C172.009 20.3124 171.554 21.34 170.545 22.0306L170.531 22.1225L172.778 23.8241L172.934 23.8393C174.364 22.5486 175.189 20.6494 175.189 18.3968Z" fill="#4285F4"/>
<path d="M167.92 25.6314C169.964 25.6314 171.68 24.9737 172.934 23.8392L170.545 22.0305C169.905 22.4662 169.047 22.7704 167.92 22.7704C165.918 22.7704 164.218 21.4797 163.612 19.6957L163.524 19.703L161.186 21.4706L161.156 21.5536C162.401 23.9707 164.958 25.6314 167.92 25.6314Z" fill="#34A853"/>
<path d="M163.612 19.6958C163.452 19.2354 163.36 18.7421 163.36 18.2324C163.36 17.7226 163.452 17.2294 163.603 16.769L163.599 16.671L161.233 14.875L161.155 14.911C160.642 15.914 160.348 17.0403 160.348 18.2324C160.348 19.4245 160.642 20.5507 161.155 21.5537L163.612 19.6958Z" fill="#FBBC05"/>
<path d="M167.92 13.6943C169.342 13.6943 170.301 14.2945 170.848 14.796L172.984 12.7571C171.672 11.5651 169.964 10.8334 167.92 10.8334C164.958 10.8334 162.401 12.494 161.156 14.9111L163.604 16.7691C164.218 14.9851 165.918 13.6943 167.92 13.6943Z" fill="#EB4335"/>
</g>
</g>
<g filter="url(#filter1_d_582_253)">
<circle cx="193" cy="18" r="15.5362" fill="#0C031E" stroke="url(#paint1_linear_582_253)" stroke-width="0.927536"/>
<g clip-path="url(#clip1_582_253)">
<path d="M196.9 20.8955C196.108 21.6081 195.061 22.0031 193.912 22.0031C191.381 22.0031 189.521 20.1438 189.521 17.591C189.521 15.0383 191.321 13.2572 193.912 13.2572C195.041 13.2572 196.108 13.6331 196.92 14.3457L197.473 14.8207L199.927 12.3672L199.313 11.813C197.869 10.5088 195.951 9.7771 193.912 9.7771C189.361 9.7771 186.057 13.0607 186.057 17.5719C186.057 22.0641 189.44 25.465 193.912 25.465C195.989 25.465 197.927 24.7333 199.353 23.4083L199.946 22.854L197.454 20.4023L196.9 20.8955Z" fill="white"/>
<path d="M193.792 15C194.49 15 195.16 15.2773 195.653 15.7709C196.147 16.2644 196.424 16.9339 196.424 17.6319C196.424 18.33 196.147 18.9994 195.653 19.493C195.16 19.9866 194.49 20.2639 193.792 20.2639C193.094 20.2639 192.425 19.9866 191.931 19.493C191.437 18.9994 191.16 18.33 191.16 17.6319C191.16 16.9339 191.437 16.2644 191.931 15.7709C192.425 15.2773 193.094 15 193.792 15Z" fill="#FF3D2E"/>
</g>
</g>
<g filter="url(#filter2_d_582_253)">
<circle cx="218" cy="18" r="15.5362" fill="#0C031E" stroke="url(#paint2_linear_582_253)" stroke-width="0.927536"/>
<path d="M216.46 11.9977C217.531 12.1997 218.466 12.7889 219.112 13.6138C219.724 14.3882 220.098 15.3815 220.098 16.4421C220.098 17.1323 219.707 18.1929 218.993 19.4892C219.214 19.8596 219.452 20.2637 219.724 20.7014C220.625 19.1525 221.305 17.5869 221.305 16.4421C221.305 15.1458 220.897 13.9505 220.2 12.9909C219.537 12.0818 218.636 11.3579 217.565 10.9707C216.987 10.735 216.341 10.6172 215.661 10.6172C212.533 10.6172 210 13.2266 210 16.4421C210 18.7822 212.839 22.8394 214.522 25.0448C214.794 25.4152 215.219 25.6172 215.661 25.6172C216.103 25.6172 216.528 25.4152 216.8 25.0448C217.157 24.5903 217.548 24.0515 217.973 23.4623C217.718 23.0919 217.48 22.7216 217.242 22.3512C216.817 22.9573 216.358 23.5802 215.865 24.2367C215.78 24.3546 215.576 24.3546 215.474 24.2367C212.805 20.7519 211.224 17.8394 211.224 16.4421C211.224 13.9505 213.213 11.9135 215.661 11.9135C215.933 11.9135 216.188 11.9472 216.46 11.9977Z" fill="#D37728"/>
<path d="M219.043 23.4623C219.451 24.0515 219.859 24.5903 220.216 25.0448C220.488 25.4152 220.913 25.6172 221.355 25.6172C221.797 25.6172 222.222 25.4152 222.494 25.0448C224.16 22.8394 226.999 18.7653 226.999 16.4421C226.999 13.2266 224.466 10.6172 221.338 10.6172C220.658 10.6172 220.012 10.735 219.417 10.9707C219.825 11.2738 220.216 11.6105 220.539 11.9977C220.794 11.9472 221.066 11.9135 221.338 11.9135C223.786 11.9135 225.775 13.9337 225.775 16.4421C225.775 17.8394 224.194 20.7519 221.525 24.2367C221.44 24.3546 221.236 24.3546 221.134 24.2367C220.641 23.5802 220.182 22.9573 219.757 22.3512C219.043 21.3074 218.431 20.3478 217.972 19.4892C217.258 18.1761 216.884 17.1155 216.884 16.4421C216.884 15.3647 217.258 14.3882 217.87 13.6138C217.547 13.3445 217.173 13.1424 216.765 12.9909C216.068 13.9505 215.66 15.1458 215.66 16.4421C215.66 17.5869 216.34 19.1525 217.241 20.7014C217.802 21.661 218.431 22.6037 219.043 23.4623Z" fill="#D37728"/>
</g>
<defs>
<filter id="filter0_d_582_253" x="152" y="0" width="40" height="40" filterUnits="userSpaceOnUse" color-interpolation-filters="sRGB">
<feFlood flood-opacity="0" result="BackgroundImageFix"/>
<feColorMatrix in="SourceAlpha" type="matrix" values="0 0 0 0 0 0 0 0 0 0 0 0 0 0 0 0 0 0 127 0" result="hardAlpha"/>
<feOffset dx="4" dy="2"/>
<feGaussianBlur stdDeviation="2"/>
<feComposite in2="hardAlpha" operator="out"/>
<feColorMatrix type="matrix" values="0 0 0 0 0.722298 0 0 0 0 0.722298 0 0 0 0 0.722298 0 0 0 0.25 0"/>
<feBlend mode="normal" in2="BackgroundImageFix" result="effect1_dropShadow_582_253"/>
<feBlend mode="normal" in="SourceGraphic" in2="effect1_dropShadow_582_253" result="shape"/>
</filter>
<filter id="filter1_d_582_253" x="177" y="0" width="40" height="40" filterUnits="userSpaceOnUse" color-interpolation-filters="sRGB">
<feFlood flood-opacity="0" result="BackgroundImageFix"/>
<feColorMatrix in="SourceAlpha" type="matrix" values="0 0 0 0 0 0 0 0 0 0 0 0 0 0 0 0 0 0 127 0" result="hardAlpha"/>
<feOffset dx="4" dy="2"/>
<feGaussianBlur stdDeviation="2"/>
<feComposite in2="hardAlpha" operator="out"/>
<feColorMatrix type="matrix" values="0 0 0 0 0.722298 0 0 0 0 0.722298 0 0 0 0 0.722298 0 0 0 0.25 0"/>
<feBlend mode="normal" in2="BackgroundImageFix" result="effect1_dropShadow_582_253"/>
<feBlend mode="normal" in="SourceGraphic" in2="effect1_dropShadow_582_253" result="shape"/>
</filter>
<filter id="filter2_d_582_253" x="202" y="0" width="40" height="40" filterUnits="userSpaceOnUse" color-interpolation-filters="sRGB">
<feFlood flood-opacity="0" result="BackgroundImageFix"/>
<feColorMatrix in="SourceAlpha" type="matrix" values="0 0 0 0 0 0 0 0 0 0 0 0 0 0 0 0 0 0 127 0" result="hardAlpha"/>
<feOffset dx="4" dy="2"/>
<feGaussianBlur stdDeviation="2"/>
<feComposite in2="hardAlpha" operator="out"/>
<feColorMatrix type="matrix" values="0 0 0 0 0.722298 0 0 0 0 0.722298 0 0 0 0 0.722298 0 0 0 0.25 0"/>
<feBlend mode="normal" in2="BackgroundImageFix" result="effect1_dropShadow_582_253"/>
<feBlend mode="normal" in="SourceGraphic" in2="effect1_dropShadow_582_253" result="shape"/>
</filter>
<linearGradient id="paint0_linear_582_253" x1="152.014" y1="3.46565" x2="188.502" y2="10.5172" gradientUnits="userSpaceOnUse">
<stop stop-color="#FF65C4"/>
<stop offset="0.35" stop-color="#FFBD5A"/>
<stop offset="0.65" stop-color="#7ED958"/>
<stop offset="1" stop-color="#04C1DE"/>
</linearGradient>
<linearGradient id="paint1_linear_582_253" x1="177.014" y1="3.46565" x2="213.502" y2="10.5172" gradientUnits="userSpaceOnUse">
<stop stop-color="#FF65C4"/>
<stop offset="0.35" stop-color="#FFBD5A"/>
<stop offset="0.65" stop-color="#7ED958"/>
<stop offset="1" stop-color="#04C1DE"/>
</linearGradient>
<linearGradient id="paint2_linear_582_253" x1="202.014" y1="3.46565" x2="238.502" y2="10.5172" gradientUnits="userSpaceOnUse">
<stop stop-color="#FF65C4"/>
<stop offset="0.35" stop-color="#FFBD5A"/>
<stop offset="0.65" stop-color="#7ED958"/>
<stop offset="1" stop-color="#04C1DE"/>
</linearGradient>
<clipPath id="clip0_582_253">
<rect width="14.8406" height="14.8406" fill="white" transform="translate(160.348 10.8116)"/>
</clipPath>
<clipPath id="clip1_582_253">
<rect width="16" height="16" fill="white" transform="translate(185 9.61719)"/>
</clipPath>
</defs>
</svg>
