<svg width="369" height="56" viewBox="0 0 369 56" fill="none" xmlns="http://www.w3.org/2000/svg">
<g clip-path="url(#clip0_2856_16610)">
<path d="M21.4 45L14.8 33.5H11V45H3V10H17C20.3333 10 23.1667 11.1667 25.5 13.5C27.8333 15.8333 29 18.6667 29 22C29 24.1333 28.4 26.1167 27.2 27.95C26.0333 29.75 24.4833 31.15 22.55 32.15L30 45H21.4ZM11 17.5V26.5H17C18.1 26.5 19.0333 26.0667 19.8 25.2C20.6 24.3333 21 23.2667 21 22C21 20.7333 20.6 19.6667 19.8 18.8C19.0333 17.9333 18.1 17.5 17 17.5H11ZM40.9422 35.5C41.8089 37.8333 43.8089 39 46.9422 39C48.9755 39 50.5755 38.3667 51.7422 37.1L57.7422 40.55C55.2755 43.9833 51.6422 45.7 46.8422 45.7C42.6422 45.7 39.2755 44.45 36.7422 41.95C34.2422 39.45 32.9922 36.3 32.9922 32.5C32.9922 28.7333 34.2255 25.6 36.6922 23.1C39.1922 20.5667 42.3922 19.3 46.2922 19.3C49.9255 19.3 52.9422 20.5667 55.3422 23.1C57.7755 25.6 58.9922 28.7333 58.9922 32.5C58.9922 33.5667 58.8922 34.5667 58.6922 35.5H40.9422ZM40.7922 29.9H51.5422C50.8089 27.2667 49.0422 25.95 46.2422 25.95C43.3422 25.95 41.5255 27.2667 40.7922 29.9ZM79.1637 27.2H74.0137V36.05C74.0137 37.05 74.4137 37.6833 75.2137 37.95C76.0137 38.2167 77.3303 38.3 79.1637 38.2V45C74.397 45.5 71.097 45.05 69.2637 43.65C67.4303 42.2167 66.5137 39.6833 66.5137 36.05V27.2H62.5137V20H66.5137V15.25L74.0137 13V20H79.1637V27.2ZM103.072 20H110.572V45H103.072V42.65C101.305 44.6833 98.8219 45.7 95.6219 45.7C92.3219 45.7 89.5052 44.4333 87.1719 41.9C84.8385 39.3333 83.6719 36.2 83.6719 32.5C83.6719 28.8 84.8385 25.6833 87.1719 23.15C89.5052 20.5833 92.3219 19.3 95.6219 19.3C98.8219 19.3 101.305 20.3167 103.072 22.35V20ZM92.8219 36.95C93.9219 38.05 95.3552 38.6 97.1219 38.6C98.8885 38.6 100.322 38.05 101.422 36.95C102.522 35.85 103.072 34.3667 103.072 32.5C103.072 30.6333 102.522 29.15 101.422 28.05C100.322 26.95 98.8885 26.4 97.1219 26.4C95.3552 26.4 93.9219 26.95 92.8219 28.05C91.7219 29.15 91.1719 30.6333 91.1719 32.5C91.1719 34.3667 91.7219 35.85 92.8219 36.95ZM124.974 16.5C124.108 17.3667 123.058 17.8 121.824 17.8C120.591 17.8 119.524 17.3667 118.624 16.5C117.758 15.6 117.324 14.5333 117.324 13.3C117.324 12.0667 117.758 11.0167 118.624 10.15C119.524 9.25 120.591 8.8 121.824 8.8C123.058 8.8 124.108 9.25 124.974 10.15C125.874 11.0167 126.324 12.0667 126.324 13.3C126.324 14.5333 125.874 15.6 124.974 16.5ZM118.074 45V20H125.574V45H118.074ZM133.063 45V8.5H140.563V45H133.063ZM175.051 45.7C171.484 45.7 168.501 44.9333 166.101 43.4C163.734 41.8333 162.051 39.7167 161.051 37.05L167.951 33.05C169.351 36.2833 171.801 37.9 175.301 37.9C178.467 37.9 180.051 36.95 180.051 35.05C180.051 34.0167 179.534 33.2167 178.501 32.65C177.501 32.05 175.601 31.3667 172.801 30.6C171.334 30.2 170.051 29.75 168.951 29.25C167.851 28.75 166.767 28.1 165.701 27.3C164.667 26.4667 163.867 25.4333 163.301 24.2C162.767 22.9667 162.501 21.55 162.501 19.95C162.501 16.7167 163.651 14.1333 165.951 12.2C168.284 10.2667 171.051 9.3 174.251 9.3C177.117 9.3 179.651 9.98333 181.851 11.35C184.051 12.6833 185.784 14.6333 187.051 17.2L180.301 21.15C179.667 19.8167 178.884 18.8167 177.951 18.15C177.017 17.45 175.784 17.1 174.251 17.1C173.051 17.1 172.117 17.3667 171.451 17.9C170.817 18.4 170.501 19.0167 170.501 19.75C170.501 20.6167 170.901 21.3667 171.701 22C172.534 22.6333 174.234 23.3333 176.801 24.1C178.201 24.5333 179.284 24.8833 180.051 25.15C180.817 25.4167 181.784 25.8667 182.951 26.5C184.151 27.1 185.051 27.75 185.651 28.45C186.284 29.1167 186.834 30.0167 187.301 31.15C187.801 32.25 188.051 33.5167 188.051 34.95C188.051 38.2833 186.851 40.9167 184.451 42.85C182.051 44.75 178.917 45.7 175.051 45.7ZM207.716 27.2H202.566V36.05C202.566 37.05 202.966 37.6833 203.766 37.95C204.566 38.2167 205.883 38.3 207.716 38.2V45C202.95 45.5 199.65 45.05 197.816 43.65C195.983 42.2167 195.066 39.6833 195.066 36.05V27.2H191.066V20H195.066V15.25L202.566 13V20H207.716V27.2ZM221.951 24.45C222.418 22.85 223.351 21.6333 224.751 20.8C226.185 19.9333 227.751 19.5 229.451 19.5V28C227.618 27.7 225.901 28.0167 224.301 28.95C222.735 29.85 221.951 31.4333 221.951 33.7V45H214.451V20H221.951V24.45ZM241.857 16.5C240.99 17.3667 239.94 17.8 238.707 17.8C237.474 17.8 236.407 17.3667 235.507 16.5C234.64 15.6 234.207 14.5333 234.207 13.3C234.207 12.0667 234.64 11.0167 235.507 10.15C236.407 9.25 237.474 8.8 238.707 8.8C239.94 8.8 240.99 9.25 241.857 10.15C242.757 11.0167 243.207 12.0667 243.207 13.3C243.207 14.5333 242.757 15.6 241.857 16.5ZM234.957 45V20H242.457V45H234.957ZM268.095 10H275.595V45H268.095V42.65C266.329 44.6833 263.845 45.7 260.645 45.7C257.345 45.7 254.529 44.4333 252.195 41.9C249.862 39.3333 248.695 36.2 248.695 32.5C248.695 28.8 249.862 25.6833 252.195 23.15C254.529 20.5833 257.345 19.3 260.645 19.3C263.845 19.3 266.329 20.3167 268.095 22.35V10ZM257.845 36.95C258.945 38.05 260.379 38.6 262.145 38.6C263.912 38.6 265.345 38.05 266.445 36.95C267.545 35.85 268.095 34.3667 268.095 32.5C268.095 30.6333 267.545 29.15 266.445 28.05C265.345 26.95 263.912 26.4 262.145 26.4C260.379 26.4 258.945 26.95 257.845 28.05C256.745 29.15 256.195 30.6333 256.195 32.5C256.195 34.3667 256.745 35.85 257.845 36.95ZM289.798 35.5C290.664 37.8333 292.664 39 295.798 39C297.831 39 299.431 38.3667 300.598 37.1L306.598 40.55C304.131 43.9833 300.498 45.7 295.698 45.7C291.498 45.7 288.131 44.45 285.598 41.95C283.098 39.45 281.848 36.3 281.848 32.5C281.848 28.7333 283.081 25.6 285.548 23.1C288.048 20.5667 291.248 19.3 295.148 19.3C298.781 19.3 301.798 20.5667 304.198 23.1C306.631 25.6 307.848 28.7333 307.848 32.5C307.848 33.5667 307.748 34.5667 307.548 35.5H289.798ZM289.648 29.9H300.398C299.664 27.2667 297.898 25.95 295.098 25.95C292.198 25.95 290.381 27.2667 289.648 29.9Z" fill="white"/>
<path d="M356.25 40.75H330.75V15.25L356.25 40.75Z" fill="#00FFD4"/>
<path d="M369 2.5H318L330.75 15.25L356.25 15.25L356.25 40.75L369 53.5V2.5Z" fill="#FF3377"/>
</g>
<defs>
<clipPath id="clip0_2856_16610">
<rect width="369" height="56" fill="white"/>
</clipPath>
</defs>
</svg>
