<svg width="124" height="50" viewBox="0 0 124 50" fill="none" xmlns="http://www.w3.org/2000/svg">
<g clip-path="url(#clip0_582_442)">
<mask id="mask0_582_442" style="mask-type:luminance" maskUnits="userSpaceOnUse" x="0" y="0" width="124" height="50">
<path d="M124 0H0V49.8423H124V0Z" fill="white"/>
</mask>
<g mask="url(#mask0_582_442)">
<path d="M78.5206 26.4479C72.8843 26.6429 69.3858 27.6827 69.3858 31.3867C69.3858 33.7912 71.3293 36.3904 76.1882 36.3904C82.7316 36.3904 86.1652 32.8163 86.1652 26.9678V26.3181C83.8977 26.3181 81.0472 26.383 78.5206 26.4479ZM92.3848 34.181C92.3848 36.0006 92.4495 37.7551 92.579 39.3798H86.8132C86.6835 38.08 86.6188 36.7153 86.6188 35.4807C83.5091 39.3148 79.7514 40.4196 74.6334 40.4196C66.9239 40.4196 62.8423 36.3904 62.8423 31.6467C62.8423 24.8234 68.4141 22.484 78.067 22.2241C80.7233 22.1591 83.7036 22.1591 86.1652 22.1591V21.5093C86.1652 16.9604 83.25 15.0759 78.1967 15.0759C74.439 15.0759 71.718 16.6355 71.3941 19.2999H64.8508C65.5633 12.6066 72.5602 10.917 78.715 10.917C86.1005 10.917 92.3201 13.5813 92.3201 21.3793V34.181H92.3848Z" fill="white"/>
<path d="M24.7482 23.1341C24.489 17.2856 20.3427 15.1411 15.8077 15.1411C11.0136 15.0761 7.12643 17.5455 6.47858 23.1341H24.7482ZM6.349 27.293C6.67294 32.9465 10.5601 36.3256 15.9373 36.3256C19.6301 36.3256 22.9342 34.8311 24.0355 31.5169H30.4494C29.1536 38.1453 22.092 40.4196 16.0021 40.4196C4.92372 40.4196 0 34.3112 0 26.0582C0 16.9607 5.0533 10.9822 16.0669 10.9822C24.8129 10.9822 31.2916 15.596 31.2916 25.6035V27.293H6.349Z" fill="white"/>
<path d="M47.2288 36.1308C52.9946 36.1308 56.9467 31.9719 56.9467 25.6684C56.9467 19.365 52.9946 15.2061 47.2288 15.2061C41.4628 15.2061 37.5109 19.365 37.5109 25.6684C37.5109 31.9719 41.4628 36.1308 47.2288 36.1308ZM31.2914 0H37.5109V15.661C40.5559 12.0219 44.7669 10.9822 48.9132 10.9822C55.8453 10.9822 63.5547 15.661 63.5547 25.7985C63.5547 34.2463 57.4648 40.4197 48.8483 40.4197C44.3133 40.4197 40.1023 38.795 37.446 35.6109C37.446 36.9104 37.3812 38.2102 37.2518 39.4448H31.0972C31.2266 37.4953 31.2914 35.0261 31.2914 33.0114V0Z" fill="white"/>
<path d="M124 12.022L104.759 49.9073H97.8266L103.333 39.3799L88.8862 12.022H96.1422L106.767 33.4016L117.392 12.022H124Z" fill="white"/>
</g>
</g>
<defs>
<clipPath id="clip0_582_442">
<rect width="124" height="50" fill="white"/>
</clipPath>
</defs>
</svg>
