<svg width="207" height="50" viewBox="0 0 207 50" fill="none" xmlns="http://www.w3.org/2000/svg">
<g clip-path="url(#clip0_582_507)">
<mask id="mask0_582_507" style="mask-type:luminance" maskUnits="userSpaceOnUse" x="0" y="0" width="206" height="50">
<path d="M205.912 0H0.5V50H205.912V0Z" fill="white"/>
</mask>
<g mask="url(#mask0_582_507)">
<path d="M17.7121 19.6913V17.7429C17.0367 17.6358 16.3544 17.577 15.6705 17.5672C9.04959 17.5533 3.18786 21.8489 1.19971 28.1719C-0.788448 34.4949 1.55835 41.3778 6.99321 45.1637C2.92211 40.8014 1.7917 34.451 4.10691 28.9492C6.42213 23.4473 11.7506 19.8215 17.7121 19.6913Z" fill="white"/>
<path d="M18.0789 41.762C21.7807 41.7571 24.8236 38.8371 24.9856 35.1344V2.0921H31.0149C30.892 1.40167 30.8332 0.7013 30.8395 0H22.5929V33.0104C22.4558 36.732 19.4059 39.6799 15.6863 39.6859C14.5748 39.6765 13.4813 39.4027 12.4961 38.8874C13.7912 40.6839 15.8661 41.7523 18.0789 41.762Z" fill="white"/>
<path d="M42.2764 13.3033V11.4668C40.0574 11.4675 37.8877 10.8119 36.0396 9.58228C37.6597 11.4679 39.8489 12.7741 42.2764 13.3033Z" fill="white"/>
<path d="M36.0397 9.58216C34.2191 7.50656 33.2156 4.83846 33.2163 2.07617H31.0151C31.5897 5.16271 33.4066 7.87691 36.0397 9.58216Z" fill="white"/>
<path d="M15.6705 25.8239C12.4938 25.8402 9.73593 28.0192 8.98144 31.1087C8.22697 34.1983 9.66956 37.4054 12.4803 38.8874C10.9573 36.7823 10.7422 33.9997 11.9234 31.6848C13.1047 29.37 15.4828 27.914 18.0791 27.9159C18.7714 27.9245 19.4588 28.0322 20.1208 28.2354V19.835C19.4448 19.7337 18.7625 19.6803 18.0791 19.6753H17.7122V26.0634C17.0469 25.8848 16.3591 25.804 15.6705 25.8239Z" fill="white"/>
<path d="M42.2764 13.3032V19.6912C38.1686 19.6832 34.1673 18.3815 30.8396 15.9702V32.7548C30.822 41.1304 24.0356 47.9106 15.6704 47.9106C12.5638 47.9162 9.53196 46.9563 6.99316 45.1637C11.23 49.7261 17.8238 51.2278 23.615 48.9496C29.4062 46.6712 33.215 41.0767 33.2163 34.847V18.1102C36.5552 20.5057 40.5613 21.7906 44.669 21.7833V13.5587C43.8648 13.5562 43.0631 13.4705 42.2764 13.3032Z" fill="white"/>
<path d="M30.8396 32.7549V15.9702C34.1776 18.3677 38.1843 19.6527 42.2924 19.6433V13.2553C39.8654 12.7422 37.6708 11.453 36.0397 9.58216C33.4066 7.87691 31.5897 5.16271 31.0152 2.07617H24.9857V35.1344C24.8651 38.0838 22.892 40.6331 20.0697 41.4862C17.2472 42.3393 14.1948 41.3092 12.4643 38.9194C9.65352 37.4373 8.21094 34.2302 8.96541 31.1406C9.71989 28.0511 12.4778 25.8721 15.6544 25.8558C16.347 25.8621 17.0349 25.9696 17.6962 26.1752V19.7871C11.7012 19.8888 6.33246 23.5273 4.01066 29.0621C1.68887 34.5968 2.85263 40.9823 6.97722 45.3394C9.54105 47.0729 12.5773 47.9711 15.6704 47.9106C24.0358 47.9106 30.822 41.1303 30.8396 32.7549Z" fill="white"/>
<path d="M75.769 19.8766H69.1015V47.026H60.7592V19.8766H52.433L52.417 12.4346H78.1297L75.769 19.8766Z" fill="white"/>
<path d="M144.182 19.8766H136.941V47.026H128.614V19.8766H120.256L120.24 12.4346H146.543L144.182 19.8766Z" fill="white"/>
<path d="M87.9395 47.0262H79.7567L79.6929 23.4382H87.9395V47.0262Z" fill="white"/>
<path d="M99.4401 28.4528L107.607 20.4678H117.433L107.112 30.497L118.677 47.0261H109.601L101.881 35.5435L99.4401 37.9071V47.0261H91.2095V12.3389H99.4401V28.4528Z" fill="white"/>
<path d="M186.77 28.4528L194.921 20.4678H204.747L194.427 30.497L205.912 47.0261H196.835L189.131 35.5435L186.77 37.9071V47.0261H178.524L178.444 12.3389H186.77V28.4528Z" fill="white"/>
<path d="M83.824 20.739C86.1144 20.739 87.9712 18.88 87.9712 16.5869C87.9712 14.2936 86.1144 12.4346 83.824 12.4346C81.5335 12.4346 79.6768 14.2936 79.6768 16.5869C79.6768 18.88 81.5335 20.739 83.824 20.739Z" fill="white"/>
<path d="M145.49 32.9086C145.493 25.5409 151.153 19.414 158.489 18.8389C158.124 18.8389 157.628 18.8389 157.262 18.8389C149.806 19.2744 143.982 25.455 143.982 32.9326C143.982 40.4102 149.806 46.5909 157.262 47.0262C157.628 47.0262 158.124 47.0262 158.489 47.0262C151.134 46.4499 145.468 40.2947 145.49 32.9086Z" fill="white"/>
<path d="M161.696 18.7908C161.314 18.7908 160.819 18.7908 160.452 18.7908C167.765 19.3956 173.391 25.5142 173.391 32.8606C173.391 40.2069 167.765 46.3256 160.452 46.9303C160.819 46.9303 161.314 46.9303 161.696 46.9303C169.484 46.9303 175.796 40.6096 175.796 32.8127C175.796 25.0157 169.484 18.6951 161.696 18.6951V18.7908Z" fill="white"/>
<path d="M159.463 39.7756C155.675 39.7756 152.604 36.701 152.604 32.9084C152.604 29.1158 155.675 26.0413 159.463 26.0413C163.251 26.0413 166.321 29.1158 166.321 32.9084C166.312 36.6974 163.247 39.7668 159.463 39.7756ZM159.463 18.7908C151.675 18.7908 145.363 25.1115 145.363 32.9084C145.363 40.7054 151.675 47.026 159.463 47.026C167.25 47.026 173.564 40.7054 173.564 32.9084C173.564 29.1641 172.078 25.5733 169.434 22.9258C166.789 20.2781 163.202 18.7908 159.463 18.7908Z" fill="white"/>
</g>
</g>
<defs>
<clipPath id="clip0_582_507">
<rect width="206" height="50" fill="white" transform="translate(0.5)"/>
</clipPath>
</defs>
</svg>
