<svg width="242" height="50" viewBox="0 0 242 50" fill="none" xmlns="http://www.w3.org/2000/svg">
<g clip-path="url(#clip0_582_477)">
<path d="M38.24 36.25C38.24 38.125 37.8238 39.7909 36.9892 41.25C36.1546 42.9159 34.9038 44.1659 33.4461 45.4159C31.8594 46.7516 30.0136 47.7451 28.0245 48.3341C25.9413 48.9591 23.6467 49.375 21.1451 49.375C18.8528 49.375 16.7674 49.1659 15.1004 48.9591C13.2242 48.75 11.5572 48.3341 9.88801 47.9159C8.22105 47.5 6.76103 46.6659 5.3033 46.0409C3.84328 45.2091 2.38327 44.1659 0.716309 43.125L8.01183 36.6659C10.0972 38.3341 12.1826 39.375 14.2658 40C16.3512 40.625 18.4366 41.0409 20.7289 41.0409C21.7705 41.0409 22.6051 40.8341 23.4397 40.625C24.2558 40.4059 25.0302 40.0543 25.7321 39.5841C26.3575 39.1659 26.7737 38.5409 27.1921 38.125C27.6083 37.5 27.8175 36.875 27.8175 36.25C27.8175 35.4159 27.6083 34.7909 27.3991 34.1659C27.1921 33.5409 26.5667 32.9159 25.7321 32.5C24.8975 31.875 23.8559 31.4591 22.3959 30.8341C20.6369 30.0798 18.8258 29.4531 16.9766 28.9591C15.1004 28.3341 13.2242 27.7091 11.348 26.875C9.47184 26.0409 8.01183 25 6.76103 23.9591C5.51025 22.9159 4.25946 21.4591 3.63406 20C2.59249 18.125 2.17632 16.25 2.17632 14.1659C2.17632 12.0841 2.59249 10.2091 3.42711 8.54091C4.25946 6.875 5.51025 5.41591 7.17948 4.16591C8.63722 3.125 10.5134 2.08409 12.5988 1.45909C14.6842 0.834091 16.9766 0.415909 19.2689 0.415909C23.2305 0.415909 26.7737 0.834091 29.4845 1.875C32.1953 2.91591 34.6969 4.16591 36.78 6.04091L29.6937 12.5C28.4429 11.4591 26.9829 10.4159 25.3159 9.79091C23.6467 9.16591 21.7705 8.95909 19.6874 8.95909C18.6435 8.95909 17.8112 9.16591 16.9766 9.375C15.935 9.58409 15.3096 10 14.6842 10.4159C14.0588 10.8341 13.6404 11.4591 13.2242 12.0841C12.808 12.7091 12.5988 13.3341 12.5988 13.9591C12.5988 14.7909 12.808 15.4159 13.2242 16.0409C13.4334 16.6659 14.0588 17.0841 14.8912 17.7091C15.7258 18.3341 16.7674 18.75 18.2274 19.375C19.6874 20 21.3543 20.625 23.4397 21.25C26.1483 22.0841 28.2337 22.9159 30.1099 23.9591C31.9861 25 33.4461 26.0409 34.6969 27.2909C35.9477 28.5409 36.78 29.7909 37.4054 31.25C38.0308 32.7091 38.24 34.375 38.24 36.25ZM96.8179 48.75H86.6046V27.9159H67.6336V48.75H57.418V1.45909H67.6336V20.2091H86.6046V1.45909H96.8179V48.75ZM153.313 48.75H115.998V1.45909H153.313V8.95909H126.005V20.2091H151.227V27.5H126.005V40.4159H153.313V48.75ZM183.541 48.75H173.325V1.45909H183.541V48.75ZM241.284 1.45909V50L212.725 25.2091V48.3341H202.719V0L231.278 24.7909V1.45909H241.284Z" fill="white"/>
</g>
<defs>
<clipPath id="clip0_582_477">
<rect width="241" height="50" fill="white" transform="translate(0.5)"/>
</clipPath>
</defs>
</svg>
