<svg width="133" height="50" viewBox="0 0 133 50" fill="none" xmlns="http://www.w3.org/2000/svg">
<g clip-path="url(#clip0_582_494)">
<path d="M28.7195 12.379C28.6932 12.1946 28.5356 12.0893 28.4042 12.0893C28.2728 12.0893 25.6716 12.0366 25.6716 12.0366C25.6716 12.0366 23.4908 9.92994 23.2806 9.69294C23.0703 9.48227 22.6499 9.53494 22.4923 9.5876C22.4923 9.5876 22.0719 9.71927 21.3887 9.92994C21.2837 9.56127 21.0997 9.1136 20.8632 8.6396C20.1013 7.16495 18.9452 6.37495 17.5788 6.37495C17.4737 6.37495 17.395 6.37495 17.2898 6.40128C17.2373 6.34861 17.211 6.29595 17.1584 6.26961C16.5541 5.63762 15.7921 5.32162 14.8725 5.34796C13.112 5.40062 11.3516 6.69095 9.9065 8.9556C8.90805 10.5619 8.14606 12.5632 7.90959 14.1169C5.8864 14.7489 4.46755 15.1966 4.415 15.1966C3.39027 15.5126 3.36399 15.5389 3.23262 16.5132C3.18007 17.2505 0.5 38.0275 0.5 38.0275L22.9916 41.9248L32.7396 39.5021C32.7133 39.5021 28.7458 12.5632 28.7195 12.379ZM20.2589 10.2986C19.7334 10.4566 19.1553 10.6409 18.5248 10.8516C18.5248 9.95627 18.3934 8.69227 17.9992 7.63895C19.3393 7.84961 19.9962 9.37694 20.2589 10.2986ZM17.3424 11.194C16.16 11.5626 14.8725 11.9576 13.585 12.3526C13.9529 10.9569 14.6361 9.5876 15.4768 8.66594C15.7921 8.3236 16.2388 7.95495 16.7381 7.74428C17.2636 8.77127 17.3687 10.2196 17.3424 11.194ZM14.9251 6.53295C15.3454 6.53295 15.6871 6.61195 15.976 6.82261C15.5031 7.05961 15.0302 7.42828 14.6098 7.90228C13.48 9.1136 12.6128 10.9832 12.2713 12.8002C11.194 13.1426 10.143 13.4585 9.19707 13.7482C9.82767 10.8779 12.2187 6.61195 14.9251 6.53295Z" fill="white"/>
<path d="M24.2065 11.3125C24.4926 11.591 24.7721 11.8622 24.98 12.0635C25.0839 12.1641 25.1699 12.2476 25.23 12.3057C25.2599 12.3346 25.2833 12.3575 25.2993 12.373C25.3073 12.3808 25.3137 12.3866 25.3179 12.3906C25.3198 12.3925 25.3217 12.3935 25.3228 12.3945L25.3237 12.3965H25.3247L25.4653 12.5332L25.6616 12.5371H25.6909C25.71 12.5375 25.7382 12.5383 25.7739 12.5391C25.8452 12.5405 25.9471 12.5425 26.0698 12.5449C26.3158 12.5499 26.6456 12.5569 26.979 12.5635C27.4923 12.5736 28.0239 12.5828 28.27 12.5869C28.4167 13.5857 29.3398 19.8458 30.2583 26.083C30.7559 29.4618 31.2521 32.8349 31.6245 35.3633C31.8107 36.6273 31.9662 37.6801 32.0747 38.417C32.1169 38.7033 32.152 38.9422 32.1792 39.127L23.4917 41.2852V10.6123C23.711 10.828 23.964 11.0764 24.2065 11.3125Z" fill="white" stroke="#251D35"/>
<path d="M17.5794 17.1187L16.4495 21.3584C16.4495 21.3584 15.1883 20.7792 13.6906 20.8845C11.4835 21.0161 11.4835 22.4118 11.4835 22.7541C11.6148 24.6501 16.5808 25.0715 16.8699 29.5218C17.08 33.0241 15.0306 35.4204 12.0353 35.6047C8.46185 35.7891 6.49121 33.6824 6.49121 33.6824L7.25319 30.4434C7.25319 30.4434 9.2501 31.9444 10.8266 31.8391C11.8514 31.7864 12.2455 30.9174 12.1929 30.338C12.0353 27.8627 7.98889 28.0207 7.72614 23.9391C7.51595 20.5158 9.74932 17.0661 14.6891 16.7501C16.6071 16.6184 17.5794 17.1187 17.5794 17.1187Z" fill="#251D35"/>
<path d="M45.9298 26.1513C44.7999 25.5457 44.2219 25.019 44.2219 24.308C44.2219 23.4127 45.0364 22.8333 46.2977 22.8333C47.7691 22.8333 49.0828 23.439 49.0828 23.439L50.1076 20.279C50.1076 20.279 49.1616 19.5417 46.3765 19.5417C42.4878 19.5417 39.7814 21.7801 39.7814 24.9137C39.7814 26.7044 41.0426 28.0474 42.7242 29.0216C44.0906 29.7853 44.5635 30.3383 44.5635 31.1547C44.5635 31.9973 43.8803 32.682 42.6191 32.682C40.7536 32.682 38.9669 31.7077 38.9669 31.7077L37.8633 34.8676C37.8633 34.8676 39.4924 35.9736 42.2513 35.9736C46.2451 35.9736 49.1354 33.9986 49.1354 30.4436C49.1091 28.5213 47.6639 27.152 45.9298 26.1513Z" fill="white"/>
<path d="M61.8526 19.4892C59.882 19.4892 58.3317 20.4372 57.1494 21.8592L57.0968 21.8329L58.8047 12.8796H54.3642L50.0288 35.6841H54.4693L55.9407 27.8895C56.5187 24.9403 58.0428 23.1232 59.4616 23.1232C60.46 23.1232 60.8542 23.8079 60.8542 24.7822C60.8542 25.3879 60.8017 26.1515 60.6703 26.7572L58.9886 35.6841H63.4291L65.1633 26.4676C65.3473 25.4932 65.4786 24.3345 65.4786 23.5445C65.5049 21.0166 64.1912 19.4892 61.8526 19.4892Z" fill="white"/>
<path d="M75.5679 19.4888C70.2078 19.4888 66.6606 24.334 66.6606 29.7323C66.6606 33.182 68.789 35.9733 72.7827 35.9733C78.0378 35.9733 81.585 31.2597 81.585 25.7297C81.6113 22.5434 79.7457 19.4888 75.5679 19.4888ZM73.387 32.5763C71.8631 32.5763 71.2325 31.286 71.2325 29.6534C71.2325 27.099 72.5463 22.9384 74.9635 22.9384C76.5401 22.9384 77.0656 24.3077 77.0656 25.6244C77.0656 28.363 75.7256 32.5763 73.387 32.5763Z" fill="white"/>
<path d="M92.9892 19.4888C89.9938 19.4888 88.2859 22.1484 88.2859 22.1484H88.2335L88.4962 19.752H84.5549C84.371 21.3584 84.0031 23.8337 83.6616 25.677L80.561 42.0036H85.0015L86.2365 35.394H86.3416C86.3416 35.394 87.2612 35.9734 88.9428 35.9734C94.1716 35.9734 97.5874 30.6014 97.5874 25.1767C97.5874 22.1747 96.2473 19.4888 92.9892 19.4888ZM88.7327 32.629C87.5766 32.629 86.8934 31.9706 86.8934 31.9706L87.6291 27.81C88.1546 25.0187 89.5997 23.1753 91.1499 23.1753C92.5163 23.1753 92.9367 24.4394 92.9367 25.6244C92.9367 28.521 91.2288 32.629 88.7327 32.629Z" fill="white"/>
<path d="M103.945 13.0901C102.526 13.0901 101.396 14.2225 101.396 15.6708C101.396 16.9874 102.237 17.909 103.499 17.909H103.551C104.943 17.909 106.126 16.9611 106.152 15.3284C106.152 14.0381 105.285 13.0901 103.945 13.0901Z" fill="white"/>
<path d="M97.7183 35.6576H102.159L105.18 19.8577H100.714L97.7183 35.6576Z" fill="white"/>
<path d="M116.504 19.8315H113.404L113.562 19.0941C113.825 17.5668 114.718 16.2238 116.215 16.2238C117.004 16.2238 117.635 16.4609 117.635 16.4609L118.502 12.9585C118.502 12.9585 117.74 12.5635 116.084 12.5635C114.508 12.5635 112.931 13.0112 111.723 14.0382C110.198 15.3285 109.489 17.1982 109.148 19.0941L109.017 19.8315H106.941L106.284 23.2021H108.36L105.995 35.6841H110.435L112.8 23.2021H115.874L116.504 19.8315Z" fill="white"/>
<path d="M127.224 19.8577C127.224 19.8577 124.44 26.8886 123.205 30.7333H123.152C123.073 29.4956 122.048 19.8577 122.048 19.8577H117.371L120.051 34.3673C120.104 34.6833 120.077 34.8939 119.946 35.1046C119.421 36.1053 118.554 37.0795 117.529 37.7906C116.688 38.3962 115.742 38.7912 115.006 39.0545L116.241 42.8465C117.135 42.6622 119.027 41.8986 120.603 40.4239C122.626 38.5279 124.519 35.5786 126.436 31.576L131.875 19.8577H127.224Z" fill="white"/>
</g>
<defs>
<clipPath id="clip0_582_494">
<rect width="132" height="50" fill="white" transform="translate(0.5)"/>
</clipPath>
</defs>
</svg>
